<svg xmlns="http://www.w3.org/2000/svg" xmlns:xlink="http://www.w3.org/1999/xlink" width="532.162" height="517.605" viewBox="0 0 532.162 517.605">
  <defs>
    <clipPath id="clip-path">
      <path id="Trazado_9649" data-name="Trazado 9649" d="M264.49,283.25s-23.975,3.33-41.957,5.994S191.9,294.9,191.566,300.9s-26.306,69.262-29.3,71.26a15.744,15.744,0,0,0-6.993,11.655,46.94,46.94,0,0,1-3.33,11.988s11.655-1.332,16.649,2.664,7.992,6.327,7.992,6.327,13.986-8.991,15.983-13.652-4.329-14.652-2.331-17.982,9.99-14.319,9.99-14.319,10.656,33.3,11.988,40.292a31.461,31.461,0,0,1-1,13.986h93.57V385.478c0-4.995,3.663-20.645,3.663-20.645s8.991,25.973,11.322,32.966a149.8,149.8,0,0,1,4,15.318h31.967s-10.989-32.966-14.985-43.289-8.658-51.613-10.656-56.608-30.3-20.645-44.288-23.975a214.738,214.738,0,0,1-21.311-5.994Z" transform="translate(-151.94 -283.25)" fill="#e33c3c" stroke="#263238" stroke-linecap="round" stroke-linejoin="round" stroke-width="1"/>
    </clipPath>
  </defs>
  <g id="Work_time-bro" data-name="Work time-bro" transform="translate(-45.94 -61.162)">
    <g id="freepik--background-simple--inject-1--inject-16" transform="translate(52.167 61.162)">
      <path id="Trazado_9625" data-name="Trazado 9625" d="M395.024,84.722C332.2,55.712,256.5,54.26,191.235,76.144,125.4,98.241,57.307,153.97,51.086,227.987,46.478,282.3,89.18,316.2,96.653,366.844c4.542,30.755-9.777,57.274-11.988,86.977C82.787,479.128,91.844,503.249,108.64,522c51.946,58.286,153.308,80.81,214.352,23.443,23.975-22.577,45.287-53.625,77.813-64.747,65.386-22.324,165.309-27.971,175.152-115.214,5.994-53.172-26.732-102.441-54.224-144.944C487.3,167.5,454.669,112.28,395.024,84.722Z" transform="translate(-50.74 -61.162)" fill="#e33c3c"/>
      <path id="Trazado_9626" data-name="Trazado 9626" d="M395.024,84.722C332.2,55.712,256.5,54.26,191.235,76.144,125.4,98.241,57.307,153.97,51.086,227.987,46.478,282.3,89.18,316.2,96.653,366.844c4.542,30.755-9.777,57.274-11.988,86.977C82.787,479.128,91.844,503.249,108.64,522c51.946,58.286,153.308,80.81,214.352,23.443,23.975-22.577,45.287-53.625,77.813-64.747,65.386-22.324,165.309-27.971,175.152-115.214,5.994-53.172-26.732-102.441-54.224-144.944C487.3,167.5,454.669,112.28,395.024,84.722Z" transform="translate(-50.74 -61.162)" fill="#fff" opacity="0.7"/>
      <path id="Trazado_9627" data-name="Trazado 9627" d="M395.024,84.722C332.2,55.712,256.5,54.26,191.235,76.144,125.4,98.241,57.307,153.97,51.086,227.987,46.478,282.3,89.18,316.2,96.653,366.844c4.542,30.755-9.777,57.274-11.988,86.977C82.787,479.128,91.844,503.249,108.64,522c51.946,58.286,153.308,80.81,214.352,23.443,23.975-22.577,45.287-53.625,77.813-64.747,65.386-22.324,165.309-27.971,175.152-115.214,5.994-53.172-26.732-102.441-54.224-144.944C487.3,167.5,454.669,112.28,395.024,84.722Z" transform="translate(-50.74 -61.162)" fill="#e33c3c"/>
      <path id="Trazado_9628" data-name="Trazado 9628" d="M395.024,84.722C332.2,55.712,256.5,54.26,191.235,76.144,125.4,98.241,57.307,153.97,51.086,227.987,46.478,282.3,89.18,316.2,96.653,366.844c4.542,30.755-9.777,57.274-11.988,86.977C82.787,479.128,91.844,503.249,108.64,522c51.946,58.286,153.308,80.81,214.352,23.443,23.975-22.577,45.287-53.625,77.813-64.747,65.386-22.324,165.309-27.971,175.152-115.214,5.994-53.172-26.732-102.441-54.224-144.944C487.3,167.5,454.669,112.28,395.024,84.722Z" transform="translate(-50.74 -61.162)" fill="#fff" opacity="0.7"/>
    </g>
    <g id="freepik--Window--inject-1--inject-16" transform="translate(51.328 137.574)">
      <rect id="Rectángulo_280" data-name="Rectángulo 280" width="495.488" height="4.515" transform="translate(0 247.531)" fill="#263238"/>
      <path id="Trazado_9629" data-name="Trazado 9629" d="M312.105,263.886a10.241,10.241,0,0,0,2.984.32s-.453-1.332-.493-1.465c-.466-.959-1.931-2.557-3.117-2.4a1.412,1.412,0,0,0-1.145,1.785A2.971,2.971,0,0,0,312.105,263.886Z" transform="translate(36.255 -71.458)" fill="#263238"/>
      <path id="Trazado_9630" data-name="Trazado 9630" d="M339.663,258.207c-1.2-.133-2.664,1.505-3.05,2.477,0,.093-.479,1.478-.453,1.478h0l-.732.852c-.466.573-.986,1.225-1.505,1.971a26.371,26.371,0,0,0-1.572,2.5,18.851,18.851,0,0,0-1.332,3.01h0v-1.412c-.146-1.066-1.039-3.05-2.211-3.263a1.439,1.439,0,0,0-1.652,1.332,2.97,2.97,0,0,0,1.145,2.224,9.963,9.963,0,0,0,2.664,1.239,25.287,25.287,0,0,0-.786,3.263c-.12.639-.213,1.332-.293,1.945v-.613c-.147-1.066-1.039-3.037-2.211-3.25a1.425,1.425,0,0,0-1.652,1.332,2.984,2.984,0,0,0,1.146,2.224,9.9,9.9,0,0,0,2.664,1.212c0,.24-.067.493-.093.746-.147,1.212-.28,2.411-.453,3.583-.067.426-.133.826-.213,1.239a4.217,4.217,0,0,0,0-.533c-.133-1.065-1.026-3.05-2.211-3.263a1.412,1.412,0,0,0-1.638,1.332,2.97,2.97,0,0,0,1.146,2.224,8.95,8.95,0,0,0,2.531,1.186c-.08.413-.173.826-.28,1.225s-.133.533-.213.8-.173.533-.266.8c-.173.493-.36,1.012-.546,1.492l-.386.959c.067-.413.173-1.212.173-1.332a5.329,5.329,0,0,0-.733-2.664,2.573,2.573,0,0,0,0-.32,1.412,1.412,0,0,0-1.732-1.2c-1.159.306-1.9,2.344-1.958,3.41a9.628,9.628,0,0,0,.067,1.185,3.17,3.17,0,0,0-.173-.746c-.12-.52-.253-1.026-.4-1.572l-.24-.8c-.08-.266-.186-.533-.28-.813-.226-.626-.493-1.252-.773-1.878a9.164,9.164,0,0,0,2.664-1,3,3,0,0,0,1.332-2.131,1.425,1.425,0,0,0-1.532-1.465c-1.2.133-2.238,2.038-2.451,3.09,0,.067-.093.839-.12,1.252-.173-.373-.333-.746-.519-1.119-.533-1.066-1.106-2.144-1.678-3.21l-.519-.986a10.15,10.15,0,0,0,2.784-1.026,3,3,0,0,0,1.332-2.144,1.425,1.425,0,0,0-1.545-1.452c-1.185.133-2.224,2.038-2.437,3.09,0,.08-.12,1.185-.133,1.465-.373-.719-.746-1.452-1.079-2.171a23.7,23.7,0,0,1-1.172-3.037,9.908,9.908,0,0,0,2.8-1.026,3.05,3.05,0,0,0,1.332-2.144,1.425,1.425,0,0,0-1.545-1.452c-1.185.133-2.224,2.038-2.451,3.09,0,.08-.12,1.332-.12,1.492l-.067-.186a17.688,17.688,0,0,1-.6-3.2c-.067-.6-.107-1.172-.12-1.732a9.245,9.245,0,0,0,2.824-.706,3.01,3.01,0,0,0,1.532-1.971,1.439,1.439,0,0,0-1.332-1.625c-1.2,0-2.437,1.785-2.771,2.8l-.226,1.066v-.746a17.887,17.887,0,0,1,.106-2.477,9.7,9.7,0,0,1,.12-1.159,9.4,9.4,0,0,0,2.171-1.918,2.957,2.957,0,0,0,.44-2.464,1.412,1.412,0,0,0-1.958-.8c-1.066.546-1.332,2.664-1.172,3.756,0,.093.426,1.492.44,1.492h0a9.04,9.04,0,0,1-.147,1.106c0,.733-.146,1.572-.16,2.477a24.931,24.931,0,0,0,.067,2.957,18.2,18.2,0,0,0,.546,3.25h0c-.186-.306-.746-1.119-.8-1.172-.706-.812-2.531-1.971-3.636-1.492a1.412,1.412,0,0,0-.639,2.011,2.97,2.97,0,0,0,2.184,1.225,10,10,0,0,0,2.93-.453,24.944,24.944,0,0,0,1.132,3.157c.266.6.546,1.2.839,1.785-.173-.253-.333-.466-.36-.493-.706-.812-2.531-1.971-3.636-1.505a1.425,1.425,0,0,0-.639,2.025,2.984,2.984,0,0,0,2.184,1.225,9.417,9.417,0,0,0,2.85-.44c.107.226.213.453.333.679.546,1.092,1.092,2.171,1.6,3.25.173.373.333.759.506,1.132l-.306-.439c-.706-.8-2.544-1.958-3.65-1.492a1.425,1.425,0,0,0-.626,2.025,2.984,2.984,0,0,0,2.184,1.225,9.454,9.454,0,0,0,2.757-.413c.16.386.32.786.453,1.172s.186.519.253.786.146.546.227.813c.12.506.253,1.039.36,1.545s.147.679.213,1.012l-.559-1.172c-.573-.906-2.211-2.331-3.383-2.025a1.4,1.4,0,0,0-.919,1.891,2.917,2.917,0,0,0,1.958,1.545,9.667,9.667,0,0,0,2.944,0c.12.559.226,1.092.306,1.612.32,1.785.519,3.277.639,4.329v.506H319.87l1.332,25.773h6.154l1.332-25.773h-3.37l.08-.146c.466-.959,1.106-2.344,1.8-4l.666-1.692a10.362,10.362,0,0,0,2.944.227,3.05,3.05,0,0,0,2.078-1.332,1.425,1.425,0,0,0-.786-1.958c-1.145-.386-2.877.906-3.516,1.772,0,0-.386.653-.6,1.026l.28-.733c.173-.493.346-.986.52-1.532l.24-.786a8.6,8.6,0,0,0,.213-.839c.16-.653.28-1.332.4-1.985a9.323,9.323,0,0,0,2.784.639,2.943,2.943,0,0,0,2.264-1.066,1.425,1.425,0,0,0-.479-2.064c-1.066-.546-2.984.466-3.743,1.225,0,0-.533.653-.786.986a10.051,10.051,0,0,1,.173-1.225c.147-1.185.266-2.4.386-3.6a10.6,10.6,0,0,1,.106-1.119,9.539,9.539,0,0,0,2.89.679,2.97,2.97,0,0,0,2.264-1.052,1.425,1.425,0,0,0-.479-2.065c-1.066-.559-2.984.466-3.743,1.212,0,0-.759.932-.919,1.159.08-.812.173-1.612.306-2.411a21.931,21.931,0,0,1,.693-3.17,9.908,9.908,0,0,0,2.89.679,2.971,2.971,0,0,0,2.264-1.052,1.425,1.425,0,0,0-.48-2.065c-1.065-.559-2.984.466-3.743,1.212,0,.067-.8,1-.932,1.185a1.34,1.34,0,0,0,0-.187,19.251,19.251,0,0,1,1.252-3.01c.28-.533.573-1.026.866-1.505a9.522,9.522,0,0,0,2.744.972,2.984,2.984,0,0,0,2.371-.812,1.439,1.439,0,0,0-.253-2.1c-1-.653-3.01.146-3.849.813,0,0-.48.453-.772.759l.4-.626c.506-.759,1.012-1.425,1.465-2.011l.733-.892a9.325,9.325,0,0,0,2.864-.4,2.984,2.984,0,0,0,1.732-1.811,1.425,1.425,0,0,0-1.239-1.785Zm-13.226,32.1c-.733,1.652-1.332,3.01-1.865,4-.107.187-.186.36-.266.506h-.08a2.719,2.719,0,0,0-.08-.6c-.147-1.066-.373-2.571-.733-4.369-.107-.56-.24-1.172-.386-1.785a15.974,15.974,0,0,0,1.652-.773,10.655,10.655,0,0,0,2.384,1.545Z" transform="translate(36.335 -73.012)" fill="#263238"/>
      <path id="Trazado_9631" data-name="Trazado 9631" d="M328.4,264.643s.386-1.412.4-1.505c.146-1.052-.187-3.2-1.332-3.716a1.412,1.412,0,0,0-1.931.852,2.957,2.957,0,0,0,.52,2.451A10.656,10.656,0,0,0,328.4,264.643Z" transform="translate(41.295 -71.802)" fill="#263238"/>
      <path id="Trazado_9632" data-name="Trazado 9632" d="M97.435,265.839a9.789,9.789,0,0,0,2.837.32s-.44-1.332-.48-1.4c-.44-.919-1.825-2.437-2.957-2.278a1.332,1.332,0,0,0-1.092,1.691,2.864,2.864,0,0,0,1.692,1.665Z" transform="translate(-34.979 -70.748)" fill="#263238"/>
      <path id="Trazado_9633" data-name="Trazado 9633" d="M123.744,260.393c-1.132-.12-2.491,1.425-2.9,2.358,0,.093-.453,1.412-.426,1.412h0c-.226.24-.453.506-.693.8-.44.546-.946,1.172-1.438,1.878a27.121,27.121,0,0,0-1.492,2.371,17.7,17.7,0,0,0-1.332,2.877h0v-1.332c-.133-1.012-.986-2.89-2.1-3.09A1.332,1.332,0,0,0,111.8,269a2.784,2.784,0,0,0,1.079,2.118,9.327,9.327,0,0,0,2.557,1.172,25.709,25.709,0,0,0-.746,3.1c-.107.613-.2,1.239-.28,1.851v-.586c-.133-1.012-.986-2.89-2.1-3.09a1.332,1.332,0,0,0-1.558,1.265,2.837,2.837,0,0,0,1.079,2.118,8.6,8.6,0,0,0,2.491,1.145,1.914,1.914,0,0,1-.093.719c-.133,1.146-.266,2.291-.426,3.41l-.2,1.172v-.506c-.133-1.012-.986-2.89-2.1-3.1a1.332,1.332,0,0,0-1.558,1.332,2.784,2.784,0,0,0,1.079,2.1,8.859,8.859,0,0,0,2.411,1.132c-.08.386-.16.786-.266,1.159a7.092,7.092,0,0,1-.213.759l-.24.759c-.173.466-.346.959-.519,1.412s-.253.626-.373.919c.067-.386.173-1.159.173-1.225a5.235,5.235,0,0,0-.706-2.544,2.352,2.352,0,0,0,0-.306,1.332,1.332,0,0,0-1.665-1.145c-1.092.293-1.8,2.238-1.851,3.25v1.132l-.16-.719c-.12-.493-.253-.972-.386-1.492-.08-.253-.16-.506-.226-.759s-.186-.519-.266-.772c-.226-.6-.479-1.2-.733-1.785a9.084,9.084,0,0,0,2.544-.959,2.864,2.864,0,0,0,1.239-2.025,1.332,1.332,0,0,0-1.465-1.332c-1.132.12-2.118,1.931-2.331,2.93,0,.067-.08.8-.107,1.2-.16-.346-.32-.706-.493-1.066-.506-1.026-1.052-2.038-1.6-3.064l-.493-.932a9.551,9.551,0,0,0,2.664-.972,2.864,2.864,0,0,0,1.239-2.038,1.332,1.332,0,0,0-1.465-1.332c-1.132.133-2.118,1.945-2.331,2.944,0,.067-.107,1.132-.12,1.4-.36-.693-.706-1.332-1.026-2.078a25.618,25.618,0,0,1-1.119-2.877,9.454,9.454,0,0,0,2.664-.986,2.824,2.824,0,0,0,1.239-2.025,1.332,1.332,0,0,0-1.465-1.332c-1.132.12-2.118,1.931-2.318,2.93,0,.08-.12,1.212-.133,1.425v-.173a17.1,17.1,0,0,1-.573-3.037c0-.573-.093-1.119-.12-1.652a8.925,8.925,0,0,0,2.664-.666,2.824,2.824,0,0,0,1.452-1.891,1.332,1.332,0,0,0-1.332-1.532c-1.145,0-2.331,1.692-2.664,2.664,0,0-.133.6-.213,1.012v-.719a16.314,16.314,0,0,1,.107-2.357,8.561,8.561,0,0,1,.12-1.092,8.818,8.818,0,0,0,2.051-1.825,2.784,2.784,0,0,0,.426-2.344,1.332,1.332,0,0,0-1.851-.759c-1.026.519-1.332,2.571-1.119,3.57,0,.093.4,1.425.413,1.412h0c0,.32-.093.666-.133,1.052,0,.693-.147,1.492-.16,2.358a22.3,22.3,0,0,0,0,2.8,16.29,16.29,0,0,0,.519,3.09h0l-.759-1.106c-.666-.773-2.411-1.878-3.463-1.425a1.332,1.332,0,0,0-.6,1.918,2.81,2.81,0,0,0,2.065,1.159,9.176,9.176,0,0,0,2.784-.426,24.651,24.651,0,0,0,1.092,3c.24.573.506,1.146.786,1.7l-.333-.479c-.666-.773-2.411-1.865-3.463-1.425a1.332,1.332,0,0,0-.6,1.918,2.824,2.824,0,0,0,2.065,1.172,9.322,9.322,0,0,0,2.664-.413l.32.639c.519,1.039,1.052,2.065,1.532,3.09l.48,1.079-.293-.413c-.666-.773-2.411-1.878-3.463-1.425a1.332,1.332,0,0,0-.6,1.918,2.823,2.823,0,0,0,2.065,1.172,8.645,8.645,0,0,0,2.664-.4c.147.373.293.746.426,1.119a6.642,6.642,0,0,1,.24.759c.067.266.147.506.213.759.12.479.24.986.346,1.465l.2.972-.533-1.119c-.546-.852-2.1-2.211-3.21-1.931a1.332,1.332,0,0,0-.892,1.811,2.837,2.837,0,0,0,1.878,1.465,9.149,9.149,0,0,0,2.8,0c.107.519.213,1.039.293,1.532.293,1.691.479,3.117.6,4.116v.493h-3.436l1.252,24.495h5.861l1.252-24.495h-3.2v-.146c.44-.919,1.052-2.238,1.7-3.849.213-.506.426-1.052.639-1.625a8.938,8.938,0,0,0,2.8.226,2.81,2.81,0,0,0,1.971-1.332,1.332,1.332,0,0,0-.746-1.865c-1.079-.36-2.664.866-3.343,1.692l-.559.972c.08-.226.173-.453.253-.693.173-.466.333-.946.506-1.452.08-.253.147-.506.226-.759s.133-.519.2-.786c.147-.626.266-1.252.373-1.891a9.07,9.07,0,0,0,2.664.6,2.864,2.864,0,0,0,2.158-1,1.332,1.332,0,0,0-.453-1.971c-1.012-.519-2.837.453-3.556,1.172,0,0-.506.613-.759.932a8.7,8.7,0,0,1,.173-1.159c.133-1.132.253-2.291.36-3.436a3.58,3.58,0,0,1,.107-1.052,9.326,9.326,0,0,0,2.744.639,2.864,2.864,0,0,0,2.158-1,1.332,1.332,0,0,0-.466-1.958c-1.012-.533-2.824.44-3.556,1.159,0,0-.719.879-.866,1.092.08-.773.16-1.532.28-2.291a23.617,23.617,0,0,1,.666-3.01,9.323,9.323,0,0,0,2.757.639,2.837,2.837,0,0,0,2.144-1,1.332,1.332,0,0,0-.453-1.971c-1.012-.519-2.837.453-3.556,1.172,0,0-.773.946-.892,1.119a.984.984,0,0,0,0-.186,16.636,16.636,0,0,1,1.2-2.851c.253-.506.533-.986.812-1.438a8.538,8.538,0,0,0,2.664.919,2.77,2.77,0,0,0,2.251-.759,1.332,1.332,0,0,0-.24-2c-.946-.639-2.864.12-3.663.759l-.733.733c.133-.2.253-.413.386-.6.479-.719.959-1.332,1.332-1.9.253-.32.479-.6.706-.852a9.148,9.148,0,0,0,2.664-.386,2.877,2.877,0,0,0,1.652-1.718,1.332,1.332,0,0,0-.693-1.9ZM111.17,290.908c-.693,1.585-1.332,2.877-1.785,3.769-.08.187-.173.346-.24.493h-.08a1.554,1.554,0,0,0-.08-.586c-.133-1.012-.36-2.437-.693-4.142-.107-.546-.226-1.119-.36-1.7a14.641,14.641,0,0,0,1.558-.733,9.976,9.976,0,0,0,2.278,1.465C111.57,289.975,111.357,290.455,111.17,290.908Z" transform="translate(-34.982 -72.134)" fill="#263238"/>
      <path id="Trazado_9634" data-name="Trazado 9634" d="M112.933,266.586s.373-1.332.386-1.412c.133-1.012-.186-3.05-1.212-3.543a1.332,1.332,0,0,0-1.838.812,2.824,2.824,0,0,0,.479,2.331A9.87,9.87,0,0,0,112.933,266.586Z" transform="translate(-30.165 -71.068)" fill="#263238"/>
      <line id="Línea_1" data-name="Línea 1" y1="250.195" transform="translate(380.047)" fill="none" stroke="#263238" stroke-linecap="round" stroke-linejoin="round" stroke-width="1"/>
      <line id="Línea_2" data-name="Línea 2" y1="248.636" transform="translate(156.279 1.558)" fill="none" stroke="#263238" stroke-linecap="round" stroke-linejoin="round" stroke-width="1"/>
      <line id="Línea_3" data-name="Línea 3" x2="464.174" transform="translate(13.426 127.375)" fill="none" stroke="#263238" stroke-linecap="round" stroke-linejoin="round" stroke-width="1"/>
      <line id="Línea_4" data-name="Línea 4" x1="5.781" y2="3.556" transform="translate(215.817 81.423)" fill="none" stroke="#263238" stroke-linecap="round" stroke-linejoin="round" stroke-width="0.5"/>
      <line id="Línea_5" data-name="Línea 5" x1="89.801" y2="55.343" transform="translate(229.376 21.285)" fill="none" stroke="#263238" stroke-linecap="round" stroke-linejoin="round" stroke-width="0.5"/>
      <line id="Línea_6" data-name="Línea 6" x1="71.952" y2="44.328" transform="translate(259.079 25.027)" fill="none" stroke="#263238" stroke-linecap="round" stroke-linejoin="round" stroke-width="0.5"/>
      <line id="Línea_7" data-name="Línea 7" x1="21.738" y2="13.386" transform="translate(340.715 5.661)" fill="none" stroke="#263238" stroke-linecap="round" stroke-linejoin="round" stroke-width="0.5"/>
      <circle id="Elipse_48" data-name="Elipse 48" cx="35.963" cy="35.963" r="35.963" transform="translate(118.984 20.605)" fill="#263238"/>
      <circle id="Elipse_49" data-name="Elipse 49" cx="31.194" cy="31.194" r="31.194" transform="translate(123.752 25.374)" fill="#fff"/>
      <path id="Trazado_9635" data-name="Trazado 9635" d="M151.25,173.795l20.232-5.741v-28.3" transform="translate(-16.536 -111.486)" fill="none" stroke="#263238" stroke-miterlimit="10" stroke-width="2"/>
    </g>
    <g id="freepik--Desk--inject-1--inject-16" transform="translate(46.44 486.84)">
      <line id="Línea_8" data-name="Línea 8" x2="8.858" transform="translate(483.967)" fill="#fff" stroke="#263238" stroke-linecap="round" stroke-linejoin="round" stroke-width="1"/>
      <line id="Línea_9" data-name="Línea 9" x2="471.952" stroke-width="1" stroke="#263238" stroke-linecap="round" stroke-linejoin="round" fill="#fff"/>
    </g>
    <g id="freepik--Plant--inject-1--inject-16" transform="translate(104.753 443.726)">
      <path id="Trazado_9636" data-name="Trazado 9636" d="M134.175,371.43H90.22s0,11.8,6.207,27.238c0,2.957,7.1,5.328,15.864,5.328s15.85-2.384,15.85-5.328a1.679,1.679,0,0,0,0-.44C134.108,383,134.175,371.43,134.175,371.43Z" transform="translate(-90.22 -340.731)" fill="#fff" stroke="#263238" stroke-linecap="round" stroke-linejoin="round" stroke-width="1"/>
      <ellipse id="Elipse_50" data-name="Elipse 50" cx="22.071" cy="6.407" rx="22.071" ry="6.407" transform="translate(0.053 24.293)" fill="#fff" stroke="#263238" stroke-linecap="round" stroke-linejoin="round" stroke-width="1"/>
      <ellipse id="Elipse_51" data-name="Elipse 51" cx="19.806" cy="5.354" rx="19.806" ry="5.354" transform="translate(2.318 25.345)" fill="#fff" stroke="#263238" stroke-linecap="round" stroke-linejoin="round" stroke-width="1"/>
      <path id="Trazado_9637" data-name="Trazado 9637" d="M93.36,373.9c3.17,1.825,10,3.077,17.941,3.077s14.771-1.252,17.928-3.077c-3.157-1.811-10-3.077-17.928-3.077S96.53,372.085,93.36,373.9Z" transform="translate(-89.178 -340.933)" fill="#263238" stroke="#263238" stroke-linecap="round" stroke-linejoin="round" stroke-width="1"/>
      <path id="Trazado_9638" data-name="Trazado 9638" d="M100.989,378.692s-5.741-14.332-4.062-18.155,7.166-3.343,9.084.479,2.864,18.155,2.864,18.155S103.134,381.09,100.989,378.692Z" transform="translate(-88.096 -345.222)" fill="#e33c3c" stroke="#263238" stroke-linecap="round" stroke-linejoin="round" stroke-width="1"/>
      <path id="Trazado_9639" data-name="Trazado 9639" d="M104.556,383.29s-4.542-25.307-3.357-30.1,7.179-6.46,11.468-2.877,2.664,21.751,2.664,24.375-.24,8.125-.24,8.125A19.978,19.978,0,0,1,104.556,383.29Z" transform="translate(-86.641 -348.382)" fill="#e33c3c" stroke="#263238" stroke-linecap="round" stroke-linejoin="round" stroke-width="1"/>
      <path id="Trazado_9640" data-name="Trazado 9640" d="M111.183,378.2s-3.543-9.8-1.425-13.626,6.447-2.384,6.447.719.24,10.522-.24,12.187S112.862,379.637,111.183,378.2Z" transform="translate(-83.958 -343.77)" fill="#e33c3c" stroke="#263238" stroke-linecap="round" stroke-linejoin="round" stroke-width="1"/>
      <path id="Trazado_9641" data-name="Trazado 9641" d="M107.451,382.5c-5.98-22.643-.959-33.925-.959-33.925s7.166,12.427,3.343,33.925" transform="translate(-85.473 -348.316)" fill="none" stroke="#263238" stroke-linecap="round" stroke-linejoin="round" stroke-width="1"/>
      <path id="Trazado_9642" data-name="Trazado 9642" d="M99.771,359.52s-5.5.24,3.583,19.114" transform="translate(-87.597 -344.684)" fill="none" stroke="#263238" stroke-linecap="round" stroke-linejoin="round" stroke-width="1"/>
    </g>
    <g id="freepik--Character--inject-1--inject-16" transform="translate(125.025 246.185)">
      <path id="Trazado_9643" data-name="Trazado 9643" d="M265.9,309.769s-85.818-2.917-94.569,16.583,0,78.013,0,78.013h133.6s19.1-72.485,8.445-82.248S265.9,309.769,265.9,309.769Z" transform="translate(-84.859 -163.71)" fill="#263238" stroke="#263238" stroke-miterlimit="10" stroke-width="1"/>
      <path id="Trazado_9644" data-name="Trazado 9644" d="M266.989,205.623s-4.662-2.158-7.379.586-4.968,4.169-7.073,4.289-7.179-1.4-8.631,2.477-4.2,3.583-5.994,4.076-7.552,2.238-7.792,4.555.147,5.328-2,5.821-7.352.253-8.072,3.863a9.87,9.87,0,0,1-5.608,7.126c-2.171.786-6.66,0-7.033,4s-.466,7.992-.466,7.992l-2.477,3.756s-4.076,2.264-3.09,6.38,4.888,6.86.333,10.416-7.512,5.328-5.408,8.485,5.608,3.25,4.888,6.86-5.714,8.125-.32,10,6.873,1.039,6.194,4.315,3.157,6.66,4.888,6.86.959.773,2.291,4.915a7.7,7.7,0,0,0,6.433,5.328c1.332.147,3.17-.346,5.328,2.224s23.389,20.459,46.619,22.483a81.369,81.369,0,0,0,41.877-6.78c4.728-1.865,9.617-5.328,9.577-8.391s6.247-3.05,8.591-5.488,2.784-3.4,2.784-6.74.32-6.66,1.6-8.884,2.784-3.4,2.437-6.78,2.184-7.805,3.769-9.657,3.237-4.355.253-9.324-4.262-6.127-3.157-10.03,2.877-7.739.413-11a12.853,12.853,0,0,1-2.531-9.324c.266-2.664,2.2-4.462-1.745-6.873s-3.916-6.087-4.449-7.819.413-4-4.222-6.46a14.132,14.132,0,0,1-6.86-7.992c-.826-2.091-3.223-6.02-7.3-7.1s-6.18-.972-8.951-4.6-5.328-6.566-9.071-6.953-3.49,0-9.111.413a18.155,18.155,0,0,1-9.324-1.332C275.86,200.828,271.7,197.059,266.989,205.623Z" transform="translate(-75.507 -200.073)" fill="#263238" stroke="#263238" stroke-linecap="round" stroke-linejoin="round" stroke-width="1"/>
      <path id="Trazado_9645" data-name="Trazado 9645" d="M203.7,270.539c2.824-2.011-1.212-9.683,1.212-14.518s2.824-4.435,4.835-9.324,1.212-6.06,5.248-6.86,6.86-4.435,11.295-9.683,7.659-1.612,11.295-7.259,1.612-6.86,6.447-7.659,10.9-2.025,14.119-4.449a16.357,16.357,0,0,1,9.683-3.223,14.346,14.346,0,0,0,4.835-.8,15.184,15.184,0,0,1,7.259-2.025c4,0,4,1.612,10.9,0M272.669,212s-10.882,5.648-12.094,9.324-7.259,0-11.695,4.835-2.824,10.083-7.672,12.107-14.918,2.011-15.317,8.471-.812,10.482-4,13.706-7.259,4-4.435,8.471,4.435,6.86.4,12.108-10.9,6.846-4.835,12.494,10.083,6.06,7.659,10.083,3.623,6.06,5.248,6.86" transform="translate(-72.822 -198.523)" fill="none" stroke="#fff" stroke-miterlimit="10" stroke-width="1"/>
      <path id="Trazado_9646" data-name="Trazado 9646" d="M224.9,263.593s8.871,0,11.695-2.424,5.648-6.047,9.324-4,7.259,1.212,9.324-3.636-3.223-6.846,4-6.846,7.659-1.612,10.882-7.259-.8-5.647,8.884-6.06,10.482-6.846,14.119-6.447,5.235,1.212,1.612,8.871-6.86,8.471-2.025,12.507,9.683,2.824,6.86,12.094-.4,10.083.812,13.719,2.824,4.835-2.424,9.683-6.86,4.435-5.647,10.083,2.424,7.992-2.011,10.083-8.072,4.835-6.06,6.859,2.824,2.411,1.625,4" transform="translate(-65.784 -191.165)" fill="none" stroke="#fff" stroke-miterlimit="10" stroke-width="1"/>
      <path id="Trazado_9647" data-name="Trazado 9647" d="M264.49,283.25s-23.975,3.33-41.957,5.994S191.9,294.9,191.566,300.9s-26.306,69.262-29.3,71.26a15.744,15.744,0,0,0-6.993,11.655,46.94,46.94,0,0,1-3.33,11.988s11.655-1.332,16.649,2.664,7.992,6.327,7.992,6.327,13.986-8.991,15.983-13.652-4.329-14.652-2.331-17.982,9.99-14.319,9.99-14.319,10.656,33.3,11.988,40.292a31.461,31.461,0,0,1-1,13.986h93.57V385.478c0-4.995,3.663-20.645,3.663-20.645s8.991,25.973,11.322,32.966a149.8,149.8,0,0,1,4,15.318h31.967s-10.989-32.966-14.985-43.289-8.658-51.613-10.656-56.608-30.3-20.645-44.288-23.975a214.738,214.738,0,0,1-21.311-5.994Z" transform="translate(-90.004 -172.462)" fill="#e33c3c"/>
      <g id="Grupo_1" data-name="Grupo 1" transform="translate(61.936 110.789)" clip-path="url(#clip-path)">
        <path id="Trazado_9648" data-name="Trazado 9648" d="M168.589,396.25c4.995,4,7.992,6.327,7.992,6.327s13.986-8.991,15.983-13.653-4.329-14.652-2.331-17.981,9.99-14.319,9.99-14.319l.226.706,6.766-7.992s2.664.666,6.66,14.651,21.311,22.643,17.315,29.969c-2.584,4.742-4.888,12.254-6.194,16.982h79.784V383.263c0-4.995,3.663-20.645,3.663-20.645s8.991,25.973,11.322,32.966a149.789,149.789,0,0,1,4,15.318h31.967s-10.989-32.966-14.985-43.289c-3.4-8.764-7.272-39.879-9.59-52.106a28.382,28.382,0,0,0-4.062-4.169c-9.324-7.326-31.967-15.318-37.295-15.984s-18.647-9.324-33.3-3.33c0,0-9.99,8.658-17.315,10.656s-21.977-12.654-23.309-5.328a46.5,46.5,0,0,0,0,14.652s-7.992-18.647-7.326-11.322.666,13.986.666,13.986-7.326-15.983-7.326-9.324,3.33,15.317,2.664,20.645-19.313,38.627-21.311,41.957S181.909,377.4,179.578,382a12.4,12.4,0,0,1-6.993,5.927s2-8.658-5.328-7.992-15.318,13.653-15.318,13.653S163.595,392.254,168.589,396.25Z" transform="translate(-151.94 -281.035)" opacity="0.3"/>
      </g>
      <path id="Trazado_9650" data-name="Trazado 9650" d="M264.49,283.25s-23.975,3.33-41.957,5.994S191.9,294.9,191.566,300.9s-26.306,69.262-29.3,71.26a15.744,15.744,0,0,0-6.993,11.655,46.94,46.94,0,0,1-3.33,11.988s11.655-1.332,16.649,2.664,7.992,6.327,7.992,6.327,13.986-8.991,15.983-13.652-4.329-14.652-2.331-17.982,9.99-14.319,9.99-14.319,10.656,33.3,11.988,40.292a31.461,31.461,0,0,1-1,13.986h93.57V385.478c0-4.995,3.663-20.645,3.663-20.645s8.991,25.973,11.322,32.966a149.8,149.8,0,0,1,4,15.318h31.967s-10.989-32.966-14.985-43.289-8.658-51.613-10.656-56.608-30.3-20.645-44.288-23.975a214.738,214.738,0,0,1-21.311-5.994Z" transform="translate(-90.004 -172.462)" fill="none" stroke="#263238" stroke-linecap="round" stroke-linejoin="round" stroke-width="1"/>
      <path id="Trazado_9651" data-name="Trazado 9651" d="M242.055,325.75s2.93,29.743,1.692,42.09-5.554,21.618-3.7,30.262" transform="translate(-60.909 -158.353)" fill="none" stroke="#263238" stroke-linecap="round" stroke-linejoin="round" stroke-width="1"/>
      <line id="Línea_10" data-name="Línea 10" y1="11.322" x2="5.328" transform="translate(221.105 160.404)" fill="none" stroke="#263238" stroke-linecap="round" stroke-linejoin="round" stroke-width="1"/>
      <path id="Trazado_9652" data-name="Trazado 9652" d="M237.656,282.815s-3.663,2.331-4.329,4.662-5.994,8.658-8.325,17.981-1,26.306.666,22.31,5.994-12.654,7.659-14.651,2,.666,3.33,6.327,10.656,22.643,10.656,22.643,6.993-15.651,10.989-17.981,5.661-9.99,5.661-9.99,4,19.979,6.327,19.979,3.33-15.318,2.331-24.641-5.328-20.645-7.992-24.308S250.643,269.162,237.656,282.815Z" transform="translate(-66.167 -174.69)" fill="#fff" stroke="#263238" stroke-linecap="round" stroke-linejoin="round" stroke-width="1"/>
      <path id="Trazado_9653" data-name="Trazado 9653" d="M234.548,279.75s-1.332,25.973.666,37.295,6.993,27.971,8.658,23.975,12.321-23.642,13.986-32.633a96.707,96.707,0,0,1,5.994-18.647S243.872,292.071,234.548,279.75Z" transform="translate(-62.726 -173.623)" fill="#fff" stroke="#263238" stroke-linecap="round" stroke-linejoin="round" stroke-width="1"/>
      <path id="Trazado_9654" data-name="Trazado 9654" d="M283.067,235.6s-5.807,1.665-7.259,4.9-2.664,3.49-6.34,6.873-4.808,2.89-7.712,5.608-5.141,2.477-8.564,2.877-6.407.107-7.992,1.066a38.633,38.633,0,0,1-4.742,2.158s-2.118-1.332-3.756,3.743-3.61,16.929-2.4,23.443,6.034,22.044,13.546,25.827,25.654-8.3,30.315-13.453,14.279-29.383,14.652-33.472-5.941-11.881-7.126-15.011.493-4.835-1.838-7.712S283.067,235.6,283.067,235.6Z" transform="translate(-62.787 -188.279)" fill="#fff" stroke="#263238" stroke-linecap="round" stroke-linejoin="round" stroke-width="1"/>
      <path id="Trazado_9655" data-name="Trazado 9655" d="M259.168,275.219s-1.066,1.851-4.755,1.478-5.141-3.157-4.715-5.328" transform="translate(-57.576 -176.405)" fill="none" stroke="#263238" stroke-linecap="round" stroke-linejoin="round" stroke-width="1"/>
      <path id="Trazado_9656" data-name="Trazado 9656" d="M246.06,276.29a19.58,19.58,0,0,0,12.44,4.768" transform="translate(-58.76 -174.772)" fill="none" stroke="#263238" stroke-linecap="round" stroke-linejoin="round" stroke-width="1"/>
      <path id="Trazado_9657" data-name="Trazado 9657" d="M254,260.159l-1.412,3.143s-4.822,2.131-9.2-4.222" transform="translate(-59.65 -180.485)" fill="none" stroke="#263238" stroke-linecap="round" stroke-linejoin="round" stroke-width="1"/>
      <path id="Trazado_9658" data-name="Trazado 9658" d="M270.284,266.526l-1.172,2.944s-6.047,1.332-7.992-3.65" transform="translate(-53.761 -178.247)" fill="none" stroke="#263238" stroke-linecap="round" stroke-linejoin="round" stroke-width="1"/>
      <path id="Trazado_9659" data-name="Trazado 9659" d="M263,258.8s10.016-3.8,12.8,5.474" transform="translate(-53.137 -180.833)" fill="none" stroke="#263238" stroke-linecap="round" stroke-linejoin="round" stroke-width="1"/>
      <path id="Trazado_9660" data-name="Trazado 9660" d="M258.06,257.025s-3.53-8.245-13.32-4.648" transform="translate(-59.198 -183.012)" fill="none" stroke="#263238" stroke-linecap="round" stroke-linejoin="round" stroke-width="1"/>
      <path id="Trazado_9661" data-name="Trazado 9661" d="M252.939,263.558s-1.825.693-5.634-.573a8.231,8.231,0,0,1-4.995-4.675S242.283,267.074,252.939,263.558Z" transform="translate(-60.005 -180.74)" fill="#263238"/>
      <path id="Trazado_9662" data-name="Trazado 9662" d="M270.649,270.308s-1.825.693-5.634-.573a8.231,8.231,0,0,1-4.995-4.675S259.993,273.811,270.649,270.308Z" transform="translate(-54.126 -178.5)" fill="#263238"/>
      <path id="Trazado_9663" data-name="Trazado 9663" d="M188.19,347.718s11.322-18.314,17.315-30.968" transform="translate(-77.971 -161.341)" fill="#fff" stroke="#263238" stroke-linecap="round" stroke-linejoin="round" stroke-width="1"/>
      <path id="Trazado_9664" data-name="Trazado 9664" d="M194.69,333.237a41.53,41.53,0,0,0,12.654-12.987" transform="translate(-75.813 -160.179)" fill="none" stroke="#263238" stroke-linecap="round" stroke-linejoin="round" stroke-width="1"/>
      <path id="Trazado_9665" data-name="Trazado 9665" d="M141.44,389h68.822l37.508,25.534H168.745Z" transform="translate(-93.49 -137.357)" fill="#fff" stroke="#263238" stroke-linecap="round" stroke-linejoin="round" stroke-width="1"/>
      <line id="Línea_11" data-name="Línea 11" x1="55.276" transform="translate(81.249 271.622)" fill="none" stroke="#263238" stroke-linecap="round" stroke-linejoin="round" stroke-width="1"/>
      <line id="Línea_12" data-name="Línea 12" x1="55.276" transform="translate(75.922 266.294)" fill="none" stroke="#263238" stroke-linecap="round" stroke-linejoin="round" stroke-width="1"/>
      <line id="Línea_13" data-name="Línea 13" x1="55.276" transform="translate(70.594 260.967)" fill="none" stroke="#263238" stroke-linecap="round" stroke-linejoin="round" stroke-width="1"/>
      <path id="Trazado_9666" data-name="Trazado 9666" d="M105.44,401h68.822l37.508,25.534H132.745Z" transform="translate(-105.44 -133.374)" fill="#fff" stroke="#263238" stroke-linecap="round" stroke-linejoin="round" stroke-width="1"/>
      <line id="Línea_14" data-name="Línea 14" x1="55.276" transform="translate(33.299 287.606)" fill="none" stroke="#263238" stroke-linecap="round" stroke-linejoin="round" stroke-width="1"/>
      <line id="Línea_15" data-name="Línea 15" x1="55.276" transform="translate(27.971 282.278)" fill="none" stroke="#263238" stroke-linecap="round" stroke-linejoin="round" stroke-width="1"/>
      <line id="Línea_16" data-name="Línea 16" x1="55.276" transform="translate(22.643 276.95)" fill="none" stroke="#263238" stroke-linecap="round" stroke-linejoin="round" stroke-width="1"/>
      <path id="Trazado_9667" data-name="Trazado 9667" d="M188.125,385.188s-6.22-9.324-9.99-15.091-11.988-9.763-19.313-7.992-10.882,8.431-10.882,15.544.666,12.867,8.431,17.089,25.094,6.433,25.094,6.433S194.559,406.06,188.125,385.188Z" transform="translate(-91.332 -146.425)" fill="#fff" stroke="#263238" stroke-linecap="round" stroke-linejoin="round" stroke-width="1"/>
      <path id="Trazado_9668" data-name="Trazado 9668" d="M175.785,377.76s-8.511,2.664-9.1,5.861-1.465,10.283-.879,13.506,8.218,2.944,13.506,2.944,7.925-5.328,6.753-7.046-5.874-2.664-7.632-6.753a50.169,50.169,0,0,1-2.651-8.511Z" transform="translate(-85.465 -141.088)" fill="#fff" stroke="#263238" stroke-linecap="round" stroke-linejoin="round" stroke-width="1"/>
      <path id="Trazado_9669" data-name="Trazado 9669" d="M181.03,382.345c-1.252-2.81-2.837-5.448-3.543-6.979-1.9-4.1-6.06-4.276-6.287.919-.133,2.944,5.328,20.139,10.07,16.183C183.841,390.337,182.735,386.168,181.03,382.345Z" transform="translate(-83.611 -142.89)" fill="#fff" stroke="#263238" stroke-linecap="round" stroke-linejoin="round" stroke-width="1"/>
      <path id="Trazado_9670" data-name="Trazado 9670" d="M166.64,383.05s.293,3.516,7.339,7.632,9.1,2.664,11.455,2.664" transform="translate(-85.124 -139.332)" fill="#fff" stroke="#263238" stroke-linecap="round" stroke-linejoin="round" stroke-width="1"/>
      <path id="Trazado_9671" data-name="Trazado 9671" d="M165.76,388.34s.866,5.781,17.009,6.953" transform="translate(-85.416 -137.576)" fill="#fff" stroke="#263238" stroke-linecap="round" stroke-linejoin="round" stroke-width="1"/>
      <path id="Trazado_9672" data-name="Trazado 9672" d="M185.693,401.62l-13.906-39.959a2,2,0,0,1,1.239-2.544h0a2,2,0,0,1,2.544,1.239l13.852,40Z" transform="translate(-83.452 -147.313)" fill="#263238"/>
      <path id="Trazado_9673" data-name="Trazado 9673" d="M182.2,391.355l3.756,4.808.013-6.114Z" transform="translate(-79.959 -137.008)" fill="#fff"/>
      <path id="Trazado_9674" data-name="Trazado 9674" d="M184,393.44l1.332,1.745V393A5.887,5.887,0,0,0,184,393.44Z" transform="translate(-79.361 -136.029)" fill="#263238"/>
      <path id="Trazado_9675" data-name="Trazado 9675" d="M175.571,360.334a2.005,2.005,0,0,0-3.783,1.332l1.332,4,3.73-1.425Z" transform="translate(-83.453 -147.318)" fill="#fff"/>
      <path id="Trazado_9676" data-name="Trazado 9676" d="M178.44,372s4-1.545,5.994,0,3.1,5.554,3.1,10.216,2.224,10.656-1.771,10.429S178.44,372,178.44,372Z" transform="translate(-81.207 -143.228)" fill="#fff" stroke="#263238" stroke-linecap="round" stroke-linejoin="round" stroke-width="1"/>
      <path id="Trazado_9677" data-name="Trazado 9677" d="M252.1,403.43l-30.329-19.1H337.65l43.2,19.1Z" transform="translate(-66.823 -138.907)" fill="#fff" stroke="#263238" stroke-linecap="round" stroke-linejoin="round" stroke-width="1"/>
      <path id="Trazado_9678" data-name="Trazado 9678" d="M373.287,421.575H244.54l14.825-91.9h128.76Z" transform="translate(-59.265 -157.052)" fill="#fff" stroke="#263238" stroke-linecap="round" stroke-linejoin="round" stroke-width="1"/>
      <path id="Trazado_9679" data-name="Trazado 9679" d="M380.559,364.86c-21.8,4.955-40.611,0-77.933,6.06-36.562,5.887-51.347,22.55-57.274,33.885l-.812,5.088H373.287Z" transform="translate(-59.265 -145.371)" fill="#263238" stroke="#263238" stroke-miterlimit="10" stroke-width="1"/>
      <path id="Trazado_9680" data-name="Trazado 9680" d="M349.539,373.376s-7.3.932-9.923,3.929-.559,4.129,1.692,4.129,9.737,0,13.106-4C357.145,374.295,355.346,373,349.539,373.376Z" transform="translate(-28.111 -142.564)" fill="#fff" stroke="#263238" stroke-linecap="round" stroke-linejoin="round" stroke-width="1"/>
      <path id="Trazado_9681" data-name="Trazado 9681" d="M347.709,389.405s-7.3.932-9.923,3.929-.559,4.116,1.692,4.116,9.737,0,13.106-3.929C355.328,390.325,353.517,389.033,347.709,389.405Z" transform="translate(-28.719 -137.243)" fill="#fff" stroke="#263238" stroke-linecap="round" stroke-linejoin="round" stroke-width="1"/>
      <path id="Trazado_9682" data-name="Trazado 9682" d="M348.282,385.185s-7.312.932-9.936,3.929-.56,4.129,1.691,4.129,9.737,0,13.107-4C355.888,386.118,354.076,384.813,348.282,385.185Z" transform="translate(-28.533 -138.644)" fill="#fff" stroke="#263238" stroke-linecap="round" stroke-linejoin="round" stroke-width="1"/>
      <path id="Trazado_9683" data-name="Trazado 9683" d="M348.419,380.406s-7.312.932-9.923,3.929-.573,4.129,1.678,4.129,9.737,0,13.106-4C356.024,381.325,354.226,380.033,348.419,380.406Z" transform="translate(-28.482 -140.231)" fill="#fff" stroke="#263238" stroke-linecap="round" stroke-linejoin="round" stroke-width="1"/>
    </g>
  </g>
</svg>
