<svg xmlns="http://www.w3.org/2000/svg" width="451.042" height="480.893" viewBox="0 0 451.042 480.893">
  <g id="Scrum_board-bro_1_" data-name="Scrum board-bro (1)" transform="translate(-57.415 -49.227)">
    <g id="freepik--background-simple--inject-53" transform="translate(57.415 49.227)">
      <path id="Trazado_10371" data-name="Trazado 10371" d="M405.869,52.651c-15.084-3.563-30.88-4.608-46.154-1.877C319.25,58.031,288.453,89.791,254.081,112.3a252.508,252.508,0,0,1-73.531,32.745c-27.317,7.245-57.01,10.321-79.873,26.961-20.191,14.644-32.329,38.161-38.47,62.307-7.494,29.431-6.722,61.582,6.057,89.137,13.706,29.562,39.871,51.57,67.7,68.519,46.689,28.41,102.356,45.406,156.29,36.569,31.2-5.1,60.644-18.623,86.7-36.51,49.207-33.743,86.322-83.27,108.651-138.32,9.763-24.1,21.64-54.385,20.809-80.764-.76-24.241-12.233-50.644-26.569-69.766C463.283,78.353,436.073,59.8,405.869,52.651Z" transform="translate(-57.415 -49.227)" fill="#e33c3c"/>
      <path id="Trazado_10372" data-name="Trazado 10372" d="M405.869,52.651c-15.084-3.563-30.88-4.608-46.154-1.877C319.25,58.031,288.453,89.791,254.081,112.3a252.508,252.508,0,0,1-73.531,32.745c-27.317,7.245-57.01,10.321-79.873,26.961-20.191,14.644-32.329,38.161-38.47,62.307-7.494,29.431-6.722,61.582,6.057,89.137,13.706,29.562,39.871,51.57,67.7,68.519,46.689,28.41,102.356,45.406,156.29,36.569,31.2-5.1,60.644-18.623,86.7-36.51,49.207-33.743,86.322-83.27,108.651-138.32,9.763-24.1,21.64-54.385,20.809-80.764-.76-24.241-12.233-50.644-26.569-69.766C463.283,78.353,436.073,59.8,405.869,52.651Z" transform="translate(-57.415 -49.227)" fill="#fff" opacity="0.7"/>
    </g>
    <g id="freepik--Shadow--inject-53" transform="translate(86.698 475.177)">
      <ellipse id="Elipse_52" data-name="Elipse 52" cx="201.553" cy="27.472" rx="201.553" ry="27.472" fill="#e33c3c"/>
      <ellipse id="Elipse_53" data-name="Elipse 53" cx="201.553" cy="27.472" rx="201.553" ry="27.472" fill="#fff" opacity="0.5"/>
    </g>
    <g id="freepik--Floor--inject-53" transform="translate(86.667 190.65)">
      <line id="Línea_17" data-name="Línea 17" x2="165.554" transform="translate(185.823 258.682)" fill="#fff" stroke="#263238" stroke-linecap="round" stroke-linejoin="round" stroke-width="1"/>
      <line id="Línea_18" data-name="Línea 18" x2="129.282" transform="translate(34.605 258.682)" fill="#fff" stroke="#263238" stroke-linecap="round" stroke-linejoin="round" stroke-width="1"/>
      <rect id="Rectángulo_327" data-name="Rectángulo 327" width="107.463" height="134.46" transform="translate(216.466 132.536)" stroke-width="1" stroke="#263238" stroke-linecap="round" stroke-linejoin="round" fill="#263238"/>
      <rect id="Rectángulo_328" data-name="Rectángulo 328" width="83.971" height="134.46" transform="translate(244.139 132.536)" stroke-width="1" stroke="#263238" stroke-linecap="round" stroke-linejoin="round" fill="#fff"/>
      <rect id="Rectángulo_329" data-name="Rectángulo 329" width="66.024" height="42.152" transform="translate(253.843 141.016)" stroke-width="1" stroke="#263238" stroke-linecap="round" stroke-linejoin="round" fill="#fff"/>
      <rect id="Rectángulo_330" data-name="Rectángulo 330" width="33.517" height="8.065" transform="translate(270.114 158.048)" stroke-width="1" stroke="#263238" stroke-linecap="round" stroke-linejoin="round" fill="#263238"/>
      <rect id="Rectángulo_331" data-name="Rectángulo 331" width="66.024" height="42.152" transform="translate(253.843 198.857)" stroke-width="1" stroke="#263238" stroke-linecap="round" stroke-linejoin="round" fill="#fff"/>
      <rect id="Rectángulo_332" data-name="Rectángulo 332" width="33.517" height="8.065" transform="translate(270.114 215.889)" stroke-width="1" stroke="#263238" stroke-linecap="round" stroke-linejoin="round" fill="#263238"/>
      <path id="Trazado_10373" data-name="Trazado 10373" d="M150.462,397.967c0,2.375-12.839,4.347-28.671,4.347s-28.671-1.948-28.671-4.347,12.839-4.347,28.671-4.347S150.462,395.568,150.462,397.967Z" transform="translate(-79.965 -126.006)" fill="#263238"/>
      <path id="Trazado_10374" data-name="Trazado 10374" d="M94.417,402.988,86.21,366.87h73.756l-8.207,36.118Z" transform="translate(-81.262 -131.028)" fill="#263238"/>
      <path id="Trazado_10375" data-name="Trazado 10375" d="M159.957,367.754c0,3.088-16.509,5.594-36.819,5.594s-36.878-2.506-36.878-5.594,16.509-5.594,36.878-5.594S159.957,364.666,159.957,367.754Z" transform="translate(-81.253 -131.912)" fill="#263238"/>
      <path id="Trazado_10376" data-name="Trazado 10376" d="M151.741,367.179c0,.772-2.375,1.473-6.485,2.031a189.583,189.583,0,0,1-23.291,1.188,186.99,186.99,0,0,1-23.291-1.188c-4.05-.546-6.485-1.247-6.485-2.019,0-1.781,13.338-3.231,29.776-3.231S151.741,365.4,151.741,367.179Z" transform="translate(-80.14 -131.574)" fill="#fff"/>
      <path id="Trazado_10377" data-name="Trazado 10377" d="M144.232,368.7a189.571,189.571,0,0,1-23.291,1.188A186.938,186.938,0,0,1,97.65,368.7c2.375-1.188,11.877-2.019,23.291-2.019S141.844,367.523,144.232,368.7Z" transform="translate(-79.115 -131.063)" fill="#e33c3c"/>
      <path id="Trazado_10378" data-name="Trazado 10378" d="M138.85,377.092c2.981-.523,6-1.188,8.991-1.912" transform="translate(-71.382 -129.468)" fill="none" stroke="#fff" stroke-linecap="round" stroke-linejoin="round" stroke-width="1"/>
      <path id="Trazado_10379" data-name="Trazado 10379" d="M98.93,377.44a175.514,175.514,0,0,0,35.916.725" transform="translate(-78.875 -129.044)" fill="none" stroke="#fff" stroke-linecap="round" stroke-linejoin="round" stroke-width="1"/>
      <path id="Trazado_10380" data-name="Trazado 10380" d="M88.22,375.7s3.373.772,9.038,1.591" transform="translate(-80.885 -129.37)" fill="none" stroke="#fff" stroke-linecap="round" stroke-linejoin="round" stroke-width="1"/>
      <path id="Trazado_10381" data-name="Trazado 10381" d="M103.28,207.292a149.564,149.564,0,0,0,18.861-16.426c7.91-8.587,3.646-22.566,3.646-22.566s-5.475,4.87-13.991,13.374-8.516,14.6-8.516,14.6Z" transform="translate(-78.058 -168.3)" fill="#e33c3c"/>
      <path id="Trazado_10382" data-name="Trazado 10382" d="M113.69,239.221A147.684,147.684,0,0,0,132.551,222.8c7.9-8.516,3.646-22.5,3.646-22.5s-5.475,4.858-13.991,13.374-8.516,14.6-8.516,14.6Z" transform="translate(-76.104 -162.293)" fill="#e33c3c"/>
      <path id="Trazado_10383" data-name="Trazado 10383" d="M108.953,215.466a150.973,150.973,0,0,1-20.488-14.347c-8.765-7.649-6.01-22.008-6.01-22.008s5.939,4.311,15.333,11.877S107.8,204.622,107.8,204.622Z" transform="translate(-82.044 -166.271)" fill="#e33c3c"/>
      <path id="Trazado_10384" data-name="Trazado 10384" d="M123.029,252.651a151.036,151.036,0,0,1-21.877-12.1c-9.5-6.687-8.314-21.248-8.314-21.248s6.366,3.563,16.485,10.155,11.39,12.483,11.39,12.483Z" transform="translate(-80.027 -158.727)" fill="#e33c3c"/>
      <path id="Trazado_10385" data-name="Trazado 10385" d="M117.677,294.98a151.233,151.233,0,0,1-18.861-16.414C90.907,269.991,95.182,256,95.182,256s5.475,4.858,13.991,13.374,8.516,14.621,8.516,14.621Z" transform="translate(-79.795 -151.838)" fill="#e33c3c"/>
      <path id="Trazado_10386" data-name="Trazado 10386" d="M115.609,305.347a148.686,148.686,0,0,0,16.343-19c6.615-9.5.416-22.8.416-22.8s-4.751,5.606-11.948,15.25-6.354,15.654-6.354,15.654Z" transform="translate(-76.04 -150.423)" fill="#e33c3c"/>
      <path id="Trazado_10387" data-name="Trazado 10387" d="M124.868,334.792a151.248,151.248,0,0,1-18.861-16.426c-7.91-8.516-3.646-22.566-3.646-22.566s5.475,4.846,13.991,13.374,8.516,14.621,8.516,14.621Z" transform="translate(-78.446 -144.368)" fill="#e33c3c"/>
      <path id="Trazado_10388" data-name="Trazado 10388" d="M116.536,362.146a150.435,150.435,0,0,1-14.062-20.63c-5.5-10.226,2.162-22.685,2.162-22.685s4.074,6.069,10.155,16.473,4.537,16.3,4.537,16.3Z" transform="translate(-78.582 -140.045)" fill="#e33c3c"/>
      <path id="Trazado_10389" data-name="Trazado 10389" d="M110.623,404.7s11.782-36.463,14.027-49.884-5.606-24.7-8.2-44.883,7.126-40.382,3.706-56.131-11.782-26.925-15.155-44.337a176.572,176.572,0,0,1-2.375-18.873" transform="translate(-78.18 -164.116)" fill="none" stroke="#263238" stroke-linecap="round" stroke-linejoin="round" stroke-width="1"/>
      <line id="Línea_19" data-name="Línea 19" x2="9.181" y2="7.031" transform="translate(16.658 35.346)" fill="none" stroke="#263238" stroke-linecap="round" stroke-linejoin="round" stroke-width="1"/>
      <line id="Línea_20" data-name="Línea 20" x1="3.848" y2="6.829" transform="translate(25.412 27.436)" fill="none" stroke="#263238" stroke-linecap="round" stroke-linejoin="round" stroke-width="1"/>
      <path id="Trazado_10390" data-name="Trazado 10390" d="M103.8,233.47c7.9,5.749,15.583,11.509,15.583,11.509" transform="translate(-77.961 -156.067)" fill="none" stroke="#263238" stroke-linecap="round" stroke-linejoin="round" stroke-width="1"/>
      <path id="Trazado_10391" data-name="Trazado 10391" d="M127.349,215.48c-7.257,8.314-13.659,20.88-13.659,20.88" transform="translate(-76.104 -159.444)" fill="none" stroke="#263238" stroke-linecap="round" stroke-linejoin="round" stroke-width="1"/>
      <path id="Trazado_10392" data-name="Trazado 10392" d="M99.85,268.3a94.827,94.827,0,0,1,16.426,22.008" transform="translate(-78.702 -149.53)" fill="none" stroke="#263238" stroke-linecap="round" stroke-linejoin="round" stroke-width="1"/>
      <path id="Trazado_10393" data-name="Trazado 10393" d="M128.385,274.43s-.641.867-5.131,7.483A109.9,109.9,0,0,0,114.94,297.7" transform="translate(-75.87 -148.379)" fill="none" stroke="#263238" stroke-linecap="round" stroke-linejoin="round" stroke-width="1"/>
      <path id="Trazado_10394" data-name="Trazado 10394" d="M107.75,307.15a88.358,88.358,0,0,1,8.967,11.7,99.583,99.583,0,0,1,6.924,14" transform="translate(-77.219 -142.237)" fill="none" stroke="#263238" stroke-linecap="round" stroke-linejoin="round" stroke-width="1"/>
      <path id="Trazado_10395" data-name="Trazado 10395" d="M105.07,329.22c1.485,3.243,5.107,11.307,8.314,17.495a25.963,25.963,0,0,1,2.292,13.48" transform="translate(-77.722 -138.095)" fill="none" stroke="#263238" stroke-linecap="round" stroke-linejoin="round" stroke-width="1"/>
      <path id="Trazado_10396" data-name="Trazado 10396" d="M151.105,270.324a96.494,96.494,0,0,1-10.048-12.352c-4.038-6.188.154-14.5.154-14.5s2.922,3.658,7.328,9.917,3.753,10.072,3.753,10.072Z" transform="translate(-71.297 -154.19)" fill="#e33c3c"/>
      <path id="Trazado_10397" data-name="Trazado 10397" d="M141.105,289.244a95.654,95.654,0,0,1-10.048-12.352c-4.038-6.188.154-14.5.154-14.5s2.91,3.658,7.328,9.917,3.753,10.072,3.753,10.072Z" transform="translate(-73.174 -150.639)" fill="#e33c3c"/>
      <path id="Trazado_10398" data-name="Trazado 10398" d="M147.36,274.5a94.718,94.718,0,0,0,14.454-6.758c6.33-3.848,6.152-13.16,6.152-13.16s-4.193,2.043-10.891,5.76-7.756,7.471-7.756,7.471Z" transform="translate(-69.784 -152.105)" fill="#e33c3c"/>
      <path id="Trazado_10399" data-name="Trazado 10399" d="M134.83,296.267a94.65,94.65,0,0,0,15.036-5.226c6.7-3.147,7.506-12.412,7.506-12.412s-4.383,1.544-11.438,4.585-8.528,6.544-8.528,6.544Z" transform="translate(-72.136 -147.591)" fill="#e33c3c"/>
      <path id="Trazado_10400" data-name="Trazado 10400" d="M133,323.39a95.142,95.142,0,0,0,13.611-8.314c5.938-4.478,4.751-13.706,4.751-13.706s-3.979,2.459-10.238,6.865-6.924,8.243-6.924,8.243Z" transform="translate(-72.48 -143.322)" fill="#e33c3c"/>
      <path id="Trazado_10401" data-name="Trazado 10401" d="M132.5,330.426a96.865,96.865,0,0,1-8.183-13.659c-3.112-6.711,2.221-14.348,2.221-14.348s2.375,4.038,5.832,10.868,2.292,10.511,2.292,10.511Z" transform="translate(-74.293 -143.125)" fill="#e33c3c"/>
      <path id="Trazado_10402" data-name="Trazado 10402" d="M127.274,355.764a95.992,95.992,0,0,1-13.124-9.027c-5.618-4.751-3.943-13.967-3.943-13.967s3.824,2.684,9.822,7.459,6.449,8.611,6.449,8.611Z" transform="translate(-76.802 -137.428)" fill="#e33c3c"/>
      <path id="Trazado_10403" data-name="Trazado 10403" d="M124.18,347.552a97.272,97.272,0,0,0,13.611-8.255c5.939-4.49,4.751-13.718,4.751-13.718s-3.955,2.47-10.226,6.865-6.924,8.243-6.924,8.243Z" transform="translate(-74.135 -138.778)" fill="#e33c3c"/>
      <path id="Trazado_10404" data-name="Trazado 10404" d="M125.853,365.734A93.345,93.345,0,0,0,136.934,354.3c4.561-5.832,1.1-14.466,1.1-14.466s-3.219,3.385-8.16,9.24-4.608,9.727-4.608,9.727Z" transform="translate(-73.931 -136.103)" fill="#e33c3c"/>
      <path id="Trazado_10405" data-name="Trazado 10405" d="M127.533,392.98s-3.421-24.146-3.373-32.84,6.247-14.846,10.012-27.246,0-26.13,3.765-35.631,10.25-15.595,14.252-26.13a107.209,107.209,0,0,0,3.563-11.6" transform="translate(-74.139 -151.176)" fill="none" stroke="#263238" stroke-linecap="round" stroke-linejoin="round" stroke-width="1"/>
      <line id="Línea_21" data-name="Línea 21" x1="6.52" y2="3.421" transform="translate(79.037 114.792)" fill="none" stroke="#263238" stroke-linecap="round" stroke-linejoin="round" stroke-width="1"/>
      <line id="Línea_22" data-name="Línea 22" x2="1.663" y2="4.691" transform="translate(78.526 108.485)" fill="none" stroke="#263238" stroke-linecap="round" stroke-linejoin="round" stroke-width="1"/>
      <path id="Trazado_10406" data-name="Trazado 10406" d="M147.1,286.3c-5.535,2.791-10.986,5.57-10.986,5.57" transform="translate(-71.896 -146.151)" fill="none" stroke="#263238" stroke-linecap="round" stroke-linejoin="round" stroke-width="1"/>
      <path id="Trazado_10407" data-name="Trazado 10407" d="M133.93,272.73a76.866,76.866,0,0,1,6.307,14.573" transform="translate(-72.305 -148.698)" fill="none" stroke="#263238" stroke-linecap="round" stroke-linejoin="round" stroke-width="1"/>
      <path id="Trazado_10408" data-name="Trazado 10408" d="M146.057,308.61a60.9,60.9,0,0,0-12.7,12.008" transform="translate(-72.412 -141.963)" fill="none" stroke="#263238" stroke-linecap="round" stroke-linejoin="round" stroke-width="1"/>
      <path id="Trazado_10409" data-name="Trazado 10409" d="M126.83,309.58s.285.594,2.375,5.25a66.433,66.433,0,0,1,3.563,10.8" transform="translate(-73.638 -141.781)" fill="none" stroke="#263238" stroke-linecap="round" stroke-linejoin="round" stroke-width="1"/>
      <path id="Trazado_10410" data-name="Trazado 10410" d="M114.69,340.33a40.047,40.047,0,0,0,4.549,3.955,56.383,56.383,0,0,1,7.019,7.269" transform="translate(-75.917 -136.009)" fill="none" stroke="#263238" stroke-linecap="round" stroke-linejoin="round" stroke-width="1"/>
      <path id="Trazado_10411" data-name="Trazado 10411" d="M136.936,332.09a58.675,58.675,0,0,0-6.9,6.4,64.856,64.856,0,0,0-5.855,8.029" transform="translate(-74.135 -137.556)" fill="none" stroke="#263238" stroke-linecap="round" stroke-linejoin="round" stroke-width="1"/>
      <path id="Trazado_10412" data-name="Trazado 10412" d="M135.8,346.25c-1.283,1.853-4.442,6.52-7.126,10.084a16.771,16.771,0,0,0-2.91,8.2" transform="translate(-73.839 -134.898)" fill="none" stroke="#263238" stroke-linecap="round" stroke-linejoin="round" stroke-width="1"/>
      <path id="Trazado_10413" data-name="Trazado 10413" d="M103.28,207.292a149.564,149.564,0,0,0,18.861-16.426c7.91-8.587,3.646-22.566,3.646-22.566s-5.475,4.87-13.991,13.374-8.516,14.6-8.516,14.6Z" transform="translate(-78.058 -168.3)" opacity="0.2"/>
      <path id="Trazado_10414" data-name="Trazado 10414" d="M113.69,239.221A147.684,147.684,0,0,0,132.551,222.8c7.9-8.516,3.646-22.5,3.646-22.5s-5.475,4.858-13.991,13.374-8.516,14.6-8.516,14.6Z" transform="translate(-76.104 -162.293)" opacity="0.2"/>
      <path id="Trazado_10415" data-name="Trazado 10415" d="M108.953,215.466a150.973,150.973,0,0,1-20.488-14.347c-8.765-7.649-6.01-22.008-6.01-22.008s5.939,4.311,15.333,11.877S107.8,204.622,107.8,204.622Z" transform="translate(-82.044 -166.271)" opacity="0.2"/>
      <path id="Trazado_10416" data-name="Trazado 10416" d="M123.029,252.651a151.036,151.036,0,0,1-21.877-12.1c-9.5-6.687-8.314-21.248-8.314-21.248s6.366,3.563,16.485,10.155,11.39,12.483,11.39,12.483Z" transform="translate(-80.027 -158.727)" opacity="0.2"/>
      <path id="Trazado_10417" data-name="Trazado 10417" d="M117.677,294.98a151.233,151.233,0,0,1-18.861-16.414C90.907,269.991,95.182,256,95.182,256s5.475,4.858,13.991,13.374,8.516,14.621,8.516,14.621Z" transform="translate(-79.795 -151.838)" opacity="0.2"/>
      <path id="Trazado_10418" data-name="Trazado 10418" d="M124.868,334.792a151.248,151.248,0,0,1-18.861-16.426c-7.91-8.516-3.646-22.566-3.646-22.566s5.475,4.846,13.991,13.374,8.516,14.621,8.516,14.621Z" transform="translate(-78.446 -144.368)" opacity="0.2"/>
      <path id="Trazado_10419" data-name="Trazado 10419" d="M151.105,270.324a96.494,96.494,0,0,1-10.048-12.352c-4.038-6.188.154-14.5.154-14.5s2.922,3.658,7.328,9.917,3.753,10.072,3.753,10.072Z" transform="translate(-71.297 -154.19)" opacity="0.2"/>
      <path id="Trazado_10420" data-name="Trazado 10420" d="M141.406,272.307c-4.418-6.259-7.328-9.917-7.328-9.917a18.493,18.493,0,0,0-1.093,2.922c-.356-.95-.618-1.508-.618-1.508s-4.751,5.606-11.948,15.25-6.354,15.654-6.354,15.654l1.544,10.856a148.687,148.687,0,0,0,16.343-19,17.387,17.387,0,0,0,2.945-8.314,94.633,94.633,0,0,0,9.074,10.986l1.188-6.865S145.824,278.555,141.406,272.307Z" transform="translate(-76.04 -150.639)" opacity="0.2"/>
      <path id="Trazado_10421" data-name="Trazado 10421" d="M147.36,274.5a94.718,94.718,0,0,0,14.454-6.758c6.33-3.848,6.152-13.16,6.152-13.16s-4.193,2.043-10.891,5.76-7.756,7.471-7.756,7.471Z" transform="translate(-69.784 -152.105)" opacity="0.2"/>
      <path id="Trazado_10422" data-name="Trazado 10422" d="M134.83,296.267a94.65,94.65,0,0,0,15.036-5.226c6.7-3.147,7.506-12.412,7.506-12.412s-4.383,1.544-11.438,4.585-8.528,6.544-8.528,6.544Z" transform="translate(-72.136 -147.591)" opacity="0.2"/>
      <path id="Trazado_10423" data-name="Trazado 10423" d="M133,323.39a95.142,95.142,0,0,0,13.611-8.314c5.938-4.478,4.751-13.706,4.751-13.706s-3.979,2.459-10.238,6.865-6.924,8.243-6.924,8.243Z" transform="translate(-72.48 -143.322)" opacity="0.2"/>
      <path id="Trazado_10424" data-name="Trazado 10424" d="M132.5,330.426a96.865,96.865,0,0,1-8.183-13.659c-3.112-6.711,2.221-14.348,2.221-14.348s2.375,4.038,5.832,10.868,2.292,10.511,2.292,10.511Z" transform="translate(-74.293 -143.125)" opacity="0.2"/>
      <path id="Trazado_10425" data-name="Trazado 10425" d="M129.051,358.38l-.8-6.924s-.451-3.848-6.449-8.611c-1.96-1.568-3.694-2.91-5.131-4-.534-1.1-1.188-2.292-1.877-3.563-6.081-10.309-10.143-16.45-10.143-16.45s-7.661,12.459-2.162,22.685a150.432,150.432,0,0,0,14.039,20.63l2.708-10.2A96.03,96.03,0,0,0,129.051,358.38Z" transform="translate(-78.579 -140.045)" opacity="0.2"/>
      <path id="Trazado_10426" data-name="Trazado 10426" d="M124.18,347.552a97.272,97.272,0,0,0,13.611-8.255c5.939-4.49,4.751-13.718,4.751-13.718s-3.955,2.47-10.226,6.865-6.924,8.243-6.924,8.243Z" transform="translate(-74.135 -138.778)" opacity="0.2"/>
      <path id="Trazado_10427" data-name="Trazado 10427" d="M125.853,365.734A93.345,93.345,0,0,0,136.934,354.3c4.561-5.832,1.1-14.466,1.1-14.466s-3.219,3.385-8.16,9.24-4.608,9.727-4.608,9.727Z" transform="translate(-73.931 -136.103)" opacity="0.2"/>
    </g>
    <g id="freepik--Board--inject-53" transform="translate(108.468 69.6)">
      <rect id="Rectángulo_333" data-name="Rectángulo 333" width="359.554" height="192.527" fill="#263238"/>
      <rect id="Rectángulo_334" data-name="Rectángulo 334" width="340.337" height="172.847" transform="translate(9.763 10.274)" fill="#fff"/>
      <line id="Línea_23" data-name="Línea 23" y2="137.085" transform="translate(112.428 22.115)" fill="none" stroke="#263238" stroke-linecap="round" stroke-linejoin="round" stroke-width="1"/>
      <line id="Línea_24" data-name="Línea 24" y2="141.776" transform="translate(228.277 22.115)" fill="none" stroke="#263238" stroke-linecap="round" stroke-linejoin="round" stroke-width="1"/>
      <line id="Línea_25" data-name="Línea 25" x2="270.108" transform="translate(39.479 49.967)" fill="none" stroke="#263238" stroke-linecap="round" stroke-linejoin="round" stroke-width="1"/>
      <path id="Trazado_10428" data-name="Trazado 10428" d="M148.7,91.175H144.88V89.37h9.775v1.805h-3.813v9.7H148.7Z" transform="translate(-92.051 -62.065)" fill="#263238"/>
      <path id="Trazado_10429" data-name="Trazado 10429" d="M152.941,96.138a4.68,4.68,0,1,1,4.668,4.5,4.43,4.43,0,0,1-4.668-4.5Zm7.292,0a2.613,2.613,0,1,0-2.625,2.744,2.565,2.565,0,0,0,2.625-2.744Z" transform="translate(-90.539 -61.706)" fill="#263238"/>
      <path id="Trazado_10430" data-name="Trazado 10430" d="M175.043,88.8v12.21h-1.972V99.821a3.563,3.563,0,0,1-2.91,1.188,4.5,4.5,0,1,1,0-9,3.563,3.563,0,0,1,2.827,1.188V88.68Zm-2.019,7.827a2.625,2.625,0,1,0-2.625,2.744,2.577,2.577,0,0,0,2.625-2.744Z" transform="translate(-88.15 -62.194)" fill="#263238"/>
      <path id="Trazado_10431" data-name="Trazado 10431" d="M175.231,96.138a4.68,4.68,0,1,1,4.668,4.5,4.43,4.43,0,0,1-4.668-4.5Zm7.292,0a2.613,2.613,0,1,0-2.625,2.744,2.565,2.565,0,0,0,2.625-2.744Z" transform="translate(-86.355 -61.706)" fill="#263238"/>
      <path id="Trazado_10432" data-name="Trazado 10432" d="M223.8,89.37h4.988c3.741,0,6.295,2.3,6.295,5.76s-2.554,5.748-6.295,5.748H223.8Zm4.988,9.7a3.955,3.955,0,1,0,0-7.9H226v7.9Z" transform="translate(-77.237 -62.065)" fill="#263238"/>
      <path id="Trazado_10433" data-name="Trazado 10433" d="M234.48,96.138a4.68,4.68,0,1,1,4.68,4.5,4.43,4.43,0,0,1-4.68-4.5Zm7.293,0a2.613,2.613,0,1,0-2.613,2.744,2.554,2.554,0,0,0,2.613-2.744Z" transform="translate(-75.233 -61.706)" fill="#263238"/>
      <path id="Trazado_10434" data-name="Trazado 10434" d="M243.8,89.6a1.313,1.313,0,0,1,2.625,0,1.318,1.318,0,0,1-2.625,0Zm.273,2.684h2.055v8.777h-2.09Z" transform="translate(-73.483 -62.246)" fill="#263238"/>
      <path id="Trazado_10435" data-name="Trazado 10435" d="M256.706,95.413v5.036h-2.067V95.7c0-1.568-.772-2.375-2.09-2.375a2.375,2.375,0,0,0-2.447,2.649v4.442H248V91.672h1.96V92.86a3.813,3.813,0,0,1,3.029-1.188,3.433,3.433,0,0,1,3.718,3.741Z" transform="translate(-72.695 -61.635)" fill="#263238"/>
      <path id="Trazado_10436" data-name="Trazado 10436" d="M266.5,91.675v7.447c0,3.195-1.663,4.644-4.751,4.644a7.031,7.031,0,0,1-4.288-1.188l.926-1.556a5.3,5.3,0,0,0,3.242,1.057c1.936,0,2.791-.891,2.791-2.66v-.463a3.86,3.86,0,0,1-2.946,1.188,4.252,4.252,0,1,1,0-8.492,3.836,3.836,0,0,1,3.052,1.271V91.734ZM264.47,95.8a2.672,2.672,0,1,0-2.72,2.518,2.47,2.47,0,0,0,2.66-2.518Z" transform="translate(-71.005 -61.638)" fill="#263238"/>
      <path id="Trazado_10437" data-name="Trazado 10437" d="M315.86,89.37H320.9c3.729,0,6.283,2.3,6.283,5.76s-2.554,5.748-6.283,5.748H315.86Zm4.917,9.7a3.955,3.955,0,1,0,0-7.9h-2.791v7.9Z" transform="translate(-59.957 -62.065)" fill="#263238"/>
      <path id="Trazado_10438" data-name="Trazado 10438" d="M326.531,96.141a4.691,4.691,0,1,1,4.68,4.5,4.43,4.43,0,0,1-4.68-4.5Zm7.293,0a2.613,2.613,0,1,0-2.613,2.744,2.553,2.553,0,0,0,2.613-2.744Z" transform="translate(-57.955 -61.71)" fill="#263238"/>
      <path id="Trazado_10439" data-name="Trazado 10439" d="M344.738,95.413v5.036h-2.055V95.7c0-1.568-.772-2.375-2.09-2.375a2.375,2.375,0,0,0-2.459,2.649v4.442H336.08V91.671h1.96v1.188a3.824,3.824,0,0,1,3.029-1.188,3.432,3.432,0,0,1,3.67,3.741Z" transform="translate(-56.162 -61.634)" fill="#263238"/>
      <path id="Trazado_10440" data-name="Trazado 10440" d="M354,96.735h-6.9a2.661,2.661,0,0,0,2.85,2.1,3.159,3.159,0,0,0,2.375-.95l1.1,1.271A4.941,4.941,0,0,1,345,96.082a4.371,4.371,0,0,1,4.537-4.5,4.288,4.288,0,0,1,4.442,4.549A2.026,2.026,0,0,1,354,96.735Zm-6.913-1.366h5.036a2.518,2.518,0,0,0-4.988,0Z" transform="translate(-54.488 -61.65)" fill="#263238"/>
      <path id="Trazado_10441" data-name="Trazado 10441" d="M136.965,123.78s-3.3,7.055,1.508,15.69l12.6-1.449s-2.055-11.6-1.948-15.951Z" transform="translate(-93.744 -55.927)" fill="#e33c3c" stroke="#263238" stroke-miterlimit="10" stroke-width="1"/>
      <path id="Trazado_10442" data-name="Trazado 10442" d="M136.79,123.044l12.162-.974A54.978,54.978,0,0,0,152,134.434l-12.316,1.544a52.875,52.875,0,0,1-2.9-12.934Z" transform="translate(-93.569 -55.927)" fill="#fff" stroke="#263238" stroke-miterlimit="10" stroke-width="1"/>
      <path id="Trazado_10443" data-name="Trazado 10443" d="M151.79,142.292l12.162-.962A54.952,54.952,0,0,0,167,153.682l-12.316,1.508A53.443,53.443,0,0,1,151.79,142.292Z" transform="translate(-90.754 -52.312)" fill="#e33c3c" stroke="#263238" stroke-miterlimit="10" stroke-width="1"/>
      <path id="Trazado_10444" data-name="Trazado 10444" d="M154.64,162.422l12.174-.962a54.633,54.633,0,0,0,3.041,12.352l-12.317,1.544a53.448,53.448,0,0,1-2.9-12.934Z" transform="translate(-90.219 -48.533)" fill="#fff" stroke="#263238" stroke-miterlimit="10" stroke-width="1"/>
      <path id="Trazado_10445" data-name="Trazado 10445" d="M165.75,122.949l13.623-.879a41.973,41.973,0,0,0,2.316,14.526L168.2,138.163S165.75,134.47,165.75,122.949Z" transform="translate(-88.134 -55.927)" fill="#fff" stroke="#263238" stroke-miterlimit="10" stroke-width="1"/>
      <path id="Trazado_10446" data-name="Trazado 10446" d="M167.45,121.137l13.623-.867a41.973,41.973,0,0,0,2.375,14.526l-13.492,1.568S167.45,132.622,167.45,121.137Z" transform="translate(-87.814 -56.265)" fill="#e33c3c" stroke="#263238" stroke-miterlimit="10" stroke-width="1"/>
      <path id="Trazado_10447" data-name="Trazado 10447" d="M176.74,123.716a.772.772,0,0,1-.784.784.784.784,0,0,1-.8-.784.8.8,0,0,1,.8-.8.784.784,0,0,1,.784.8Z" transform="translate(-86.367 -55.767)" fill="#263238"/>
      <path id="Trazado_10448" data-name="Trazado 10448" d="M145.25,125.046a.772.772,0,0,1-.784.784.784.784,0,0,1-.8-.784.8.8,0,0,1,.8-.8.784.784,0,0,1,.784.8Z" transform="translate(-92.278 -55.518)" fill="#263238"/>
      <path id="Trazado_10449" data-name="Trazado 10449" d="M157.732,144.036a.8.8,0,1,1-.8-.8A.8.8,0,0,1,157.732,144.036Z" transform="translate(-89.937 -51.953)" fill="#263238"/>
      <path id="Trazado_10450" data-name="Trazado 10450" d="M172.461,145.8l11.663-1.188a62.6,62.6,0,0,0,2.292,15.583L174.48,161.25S172.307,155.763,172.461,145.8Z" transform="translate(-86.875 -51.696)" fill="#fff" stroke="#263238" stroke-miterlimit="10" stroke-width="1"/>
      <path id="Trazado_10451" data-name="Trazado 10451" d="M130.43,148.418s-5.44,9.573.725,19.324l12.388-1.449s-3.195-11.259-1.366-18.493Z" transform="translate(-95.179 -51.097)" fill="#fff" stroke="#263238" stroke-miterlimit="10" stroke-width="1"/>
      <path id="Trazado_10452" data-name="Trazado 10452" d="M130.126,148.418l11.746-.618a58.935,58.935,0,0,0,1.888,14.621l-11.818,1.6S128.9,160.318,130.126,148.418Z" transform="translate(-94.875 -51.097)" fill="#e33c3c" stroke="#263238" stroke-miterlimit="10" stroke-width="1"/>
      <path id="Trazado_10453" data-name="Trazado 10453" d="M136.772,150.224a.8.8,0,1,1-.784-.784.784.784,0,0,1,.784.784Z" transform="translate(-93.872 -50.789)" fill="#263238"/>
      <path id="Trazado_10454" data-name="Trazado 10454" d="M180.75,147.3a.8.8,0,0,1-.8.8.784.784,0,0,1-.784-.8.772.772,0,0,1,.784-.784.784.784,0,0,1,.8.784Z" transform="translate(-85.614 -51.337)" fill="#263238"/>
      <path id="Trazado_10455" data-name="Trazado 10455" d="M163.841,164.03a.8.8,0,1,1-.79-.7A.8.8,0,0,1,163.841,164.03Z" transform="translate(-88.79 -48.182)" fill="#263238"/>
      <path id="Trazado_10456" data-name="Trazado 10456" d="M213.65,152.542l12.174-.962a54.236,54.236,0,0,0,3.052,12.352l-12.328,1.556A53.674,53.674,0,0,1,213.65,152.542Z" transform="translate(-79.142 -50.388)" fill="#e33c3c" stroke="#263238" stroke-miterlimit="10" stroke-width="1"/>
      <path id="Trazado_10457" data-name="Trazado 10457" d="M216.27,176.632l12.162-.962a54.955,54.955,0,0,0,3.052,12.352l-12.316,1.544a52.877,52.877,0,0,1-2.9-12.934Z" transform="translate(-78.651 -45.866)" fill="#fff" stroke="#263238" stroke-miterlimit="10" stroke-width="1"/>
      <path id="Trazado_10458" data-name="Trazado 10458" d="M251.9,122.949l13.623-.879a41.971,41.971,0,0,0,2.316,14.526l-13.445,1.568S251.9,134.47,251.9,122.949Z" transform="translate(-71.963 -55.927)" fill="#fff" stroke="#263238" stroke-miterlimit="10" stroke-width="1"/>
      <path id="Trazado_10459" data-name="Trazado 10459" d="M253.6,121.137l13.623-.867a41.976,41.976,0,0,0,2.292,14.478l-13.492,1.568S253.6,132.622,253.6,121.137Z" transform="translate(-71.644 -56.265)" fill="#e33c3c" stroke="#263238" stroke-miterlimit="10" stroke-width="1"/>
      <path id="Trazado_10460" data-name="Trazado 10460" d="M262.9,123.716a.8.8,0,1,1-.8-.8A.8.8,0,0,1,262.9,123.716Z" transform="translate(-70.197 -55.767)" fill="#263238"/>
      <path id="Trazado_10461" data-name="Trazado 10461" d="M219.59,154.286a.772.772,0,0,1-.784.784.784.784,0,0,1-.8-.784.8.8,0,0,1,.8-.8.784.784,0,0,1,.784.8Z" transform="translate(-78.324 -50.029)" fill="#263238"/>
      <path id="Trazado_10462" data-name="Trazado 10462" d="M236.491,150.418l11.663-1.188a62.293,62.293,0,0,0,2.3,15.571L238.51,165.87S236.337,160.335,236.491,150.418Z" transform="translate(-74.857 -50.829)" fill="#fff" stroke="#263238" stroke-miterlimit="10" stroke-width="1"/>
      <path id="Trazado_10463" data-name="Trazado 10463" d="M244.782,151.916a.8.8,0,1,1-.8-.8A.8.8,0,0,1,244.782,151.916Z" transform="translate(-73.598 -50.474)" fill="#263238"/>
      <path id="Trazado_10464" data-name="Trazado 10464" d="M223.591,178.36a.8.8,0,1,1-.79-.7A.8.8,0,0,1,223.591,178.36Z" transform="translate(-77.574 -45.492)" fill="#263238"/>
      <path id="Trazado_10465" data-name="Trazado 10465" d="M315,123.044l12.162-.974a54.981,54.981,0,0,0,3.052,12.364L317.9,135.978a52.88,52.88,0,0,1-2.9-12.934Z" transform="translate(-60.119 -55.927)" fill="#e33c3c" stroke="#263238" stroke-miterlimit="10" stroke-width="1"/>
      <path id="Trazado_10466" data-name="Trazado 10466" d="M332.84,162.422l12.174-.962a54.237,54.237,0,0,0,3.052,12.352l-12.328,1.544A53.456,53.456,0,0,1,332.84,162.422Z" transform="translate(-56.77 -48.533)" fill="#e33c3c" stroke="#263238" stroke-miterlimit="10" stroke-width="1"/>
      <path id="Trazado_10467" data-name="Trazado 10467" d="M345.66,121.137l13.623-.867a42.137,42.137,0,0,0,2.3,14.526l-13.492,1.568S345.66,132.622,345.66,121.137Z" transform="translate(-54.364 -56.265)" fill="#e33c3c" stroke="#263238" stroke-miterlimit="10" stroke-width="1"/>
      <path id="Trazado_10468" data-name="Trazado 10468" d="M354.95,123.716a.784.784,0,0,1-.8.784.772.772,0,0,1-.784-.784.784.784,0,0,1,.784-.8A.8.8,0,0,1,354.95,123.716Z" transform="translate(-52.917 -55.767)" fill="#263238"/>
      <path id="Trazado_10469" data-name="Trazado 10469" d="M323.452,125.046a.8.8,0,1,1-.8-.8A.8.8,0,0,1,323.452,125.046Z" transform="translate(-58.831 -55.518)" fill="#263238"/>
      <path id="Trazado_10470" data-name="Trazado 10470" d="M308.326,148.418l11.746-.618a58.932,58.932,0,0,0,1.888,14.621l-11.818,1.6S307.1,160.318,308.326,148.418Z" transform="translate(-61.426 -51.097)" fill="#e33c3c" stroke="#263238" stroke-miterlimit="10" stroke-width="1"/>
      <path id="Trazado_10471" data-name="Trazado 10471" d="M314.97,150.224a.784.784,0,0,1-.784.8.8.8,0,0,1-.8-.8.784.784,0,0,1,.8-.784.772.772,0,0,1,.784.784Z" transform="translate(-60.421 -50.789)" fill="#263238"/>
      <path id="Trazado_10472" data-name="Trazado 10472" d="M342.041,164.044a.8.8,0,1,1-.784-.784.784.784,0,0,1,.784.784Z" transform="translate(-55.342 -48.195)" fill="#263238"/>
      <path id="Trazado_10473" data-name="Trazado 10473" d="M100.4,67.23l9.775,9.264V249.341l-9.775,9.407Z" transform="translate(-100.4 -66.22)" opacity="0.2"/>
      <path id="Trazado_10474" data-name="Trazado 10474" d="M404.634,66.38V258.028L395.18,249.5V76.654Z" transform="translate(-45.069 -66.38)" opacity="0.2"/>
      <line id="Línea_26" data-name="Línea 26" y1="1.817" x2="25.595" transform="translate(126.621 63.958)" fill="none" stroke="#263238" stroke-linecap="round" stroke-linejoin="round" stroke-width="1"/>
      <line id="Línea_27" data-name="Línea 27" y1="1.817" x2="25.595" transform="translate(126.621 68.614)" fill="none" stroke="#263238" stroke-linecap="round" stroke-linejoin="round" stroke-width="1"/>
      <line id="Línea_28" data-name="Línea 28" y1="1.817" x2="25.595" transform="translate(126.621 73.281)" fill="none" stroke="#263238" stroke-linecap="round" stroke-linejoin="round" stroke-width="1"/>
      <path id="Trazado_10475" data-name="Trazado 10475" d="M260,162.5c1.188-4.276,5.083-7.352,9.228-8.943,8.528-3.278,17.127.166,20.191,8.967,2.233,6.414,1.722,14.8-4.2,19a20.666,20.666,0,0,1-17.495,2.566c-4.395-1.449-8.112-5.737-7.637-10.345" transform="translate(-70.442 -50.246)" fill="none" stroke="#263238" stroke-linecap="round" stroke-linejoin="round" stroke-width="1"/>
      <path id="Trazado_10476" data-name="Trazado 10476" d="M282.1,135.58q-2.375,9.228-4.513,18.481" transform="translate(-67.141 -53.391)" fill="none" stroke="#263238" stroke-linecap="round" stroke-linejoin="round" stroke-width="1"/>
      <path id="Trazado_10477" data-name="Trazado 10477" d="M274.1,145.48a29.89,29.89,0,0,0,3.468,7.245,12.519,12.519,0,0,0,6.022-4.87" transform="translate(-67.796 -51.533)" fill="none" stroke="#263238" stroke-linecap="round" stroke-linejoin="round" stroke-width="1"/>
      <path id="Trazado_10478" data-name="Trazado 10478" d="M266.48,162.042l12.162-.962a54.954,54.954,0,0,0,3.052,12.352l-12.316,1.556A53.04,53.04,0,0,1,266.48,162.042Z" transform="translate(-69.226 -48.604)" fill="#e33c3c" stroke="#263238" stroke-miterlimit="10" stroke-width="1"/>
      <path id="Trazado_10479" data-name="Trazado 10479" d="M272.42,163.786a.784.784,0,0,1-.8.784.772.772,0,0,1-.784-.784.784.784,0,0,1,.784-.8A.8.8,0,0,1,272.42,163.786Z" transform="translate(-68.408 -48.246)" fill="#263238"/>
    </g>
    <g id="freepik--character-1--inject-53" transform="translate(137.154 158.618)">
      <path id="Trazado_10480" data-name="Trazado 10480" d="M188.823,442.24a5.321,5.321,0,0,0,2.637,3.5c4.751,2.031,13.3-1.188,19.371-2.7s19.193-6.057,20.381-11.117a3.658,3.658,0,0,0-.095-2.268c-1.116-2.66-6.176-2.435-9.335-2.435-3.884,0-13.314-1.021-16.01-2.2S188.1,431.1,188.1,431.1,187.374,437.822,188.823,442.24Z" transform="translate(-112.658 -88.103)" fill="#e33c3c"/>
      <path id="Trazado_10481" data-name="Trazado 10481" d="M160.283,430.556h0a4.751,4.751,0,0,0,3.136,3.124c4.371,1.354,6.734-1.342,9.086-4.2s4.881-3.563,8.6-6.235,4-7.875,2.221-9.134a1.036,1.036,0,0,0-.214-.131c-2.007-1.01-9.6,1.687-9.6,1.687L161.9,413.75s-.843,4.276-1.687,8.314C159.677,424.629,159.356,428.038,160.283,430.556Z" transform="translate(-117.956 -90.196)" fill="#e33c3c"/>
      <path id="Trazado_10482" data-name="Trazado 10482" d="M160.19,430.51a4.751,4.751,0,0,0,3.136,3.124c4.371,1.354,6.734-1.342,9.086-4.2s4.882-3.563,8.6-6.235,4-7.875,2.221-9.133a8.076,8.076,0,0,1-1.4,5.938,19.726,19.726,0,0,1-5.1,4.751,33.569,33.569,0,0,0-5.44,4.406c-.748.843-2.007,1.093-2.934,1.734-1.378.95-2.6,1.841-4.228,1.473A10.775,10.775,0,0,1,160.19,430.51Z" transform="translate(-117.863 -90.137)" fill="#fdfeff"/>
      <path id="Trazado_10483" data-name="Trazado 10483" d="M188.68,441.488a5.321,5.321,0,0,0,2.637,3.5c4.751,2.031,12.958.653,19.371-2.7,6.057-1.508,19.193-6.057,20.381-11.117a3.658,3.658,0,0,0-.095-2.269c-.665,1.449-2.482,3.563-7.055,5.938-9.062,4.881-21.5,7.839-25.88,8.552C195.117,443.923,191.055,442.5,188.68,441.488Z" transform="translate(-112.515 -87.35)" fill="#fdfeff"/>
      <path id="Trazado_10484" data-name="Trazado 10484" d="M165.427,263.12c-.558-.321-12.97,32.21-13.29,33.576a51.925,51.925,0,0,0-1.188,16.188,52.473,52.473,0,0,0,11.117,27.507c5.939,7.578,18.445,19,14.252,29.859-2.553,6.651-19.942,36.819-15.333,73.091,0,0,5.475,9.2,15.773,0l9.775-19.93,7.673,36.819s10.226,11.247,18.908,0a219.724,219.724,0,0,1,5.63-58.091q7.126-29.621,11.509-59.8c1.342-9.193,3.563-18.908,2.375-28.16-1.188-9.739-11.877-37.543-15.44-46.689C217.282,267.491,205.809,286.126,165.427,263.12Z" transform="translate(-119.632 -118.47)" fill="#263238"/>
      <path id="Trazado_10485" data-name="Trazado 10485" d="M178.25,372.42c-.76,5.867.333,12.245,1.33,18.029" transform="translate(-114.521 -97.953)" fill="none" stroke="#fdfeff" stroke-linecap="round" stroke-linejoin="round" stroke-width="1"/>
      <path id="Trazado_10486" data-name="Trazado 10486" d="M172.48,309.81l11.141,4.335s4.133,31.023,4.133,36.926c0,4-4.228,15.1-6.794,24.942" transform="translate(-115.556 -109.706)" fill="none" stroke="#fdfeff" stroke-linecap="round" stroke-linejoin="round" stroke-width="1"/>
      <path id="Trazado_10487" data-name="Trazado 10487" d="M188.806,428.9s-1.793,8.16,0,13.326,5.737,4.751,10.309,4.751,22.21-7.316,26.925-9.335,6.615-6.5,5.06-8.029-2.47-1.972-9.335-2.435S207.809,426.7,205.814,425" transform="translate(-112.641 -88.084)" fill="none" stroke="#263238" stroke-miterlimit="10" stroke-width="1"/>
      <path id="Trazado_10488" data-name="Trazado 10488" d="M188.68,441.488A17.66,17.66,0,0,0,200.426,443c6.295-1.532,28.2-8.136,30.548-14.086" transform="translate(-112.515 -87.35)" fill="none" stroke="#263238" stroke-miterlimit="10" stroke-width="1"/>
      <path id="Trazado_10489" data-name="Trazado 10489" d="M161.538,416.594s-2.257,7.554-1.829,10.511-.119,6.235,4.976,6.853,7.779-4.751,8.955-5.689,8.041-4.193,9.87-7.934a6.473,6.473,0,0,0,.546-4.751c-.653-1.96-2.078-1.876-3.86-1.579a51.78,51.78,0,0,0-6.675,1.687" transform="translate(-117.963 -90.178)" fill="none" stroke="#263238" stroke-miterlimit="10" stroke-width="1"/>
      <path id="Trazado_10490" data-name="Trazado 10490" d="M159.94,430.776c2.221.8,4.656,1.6,6.9.879,2.625-.843,4.169-3.492,6.342-5.178.8-.606,1.675-1.093,2.53-1.627a18.824,18.824,0,0,0,5.3-4.62c1.4-1.9,2.316-3.468,2.209-5.82" transform="translate(-117.91 -90.072)" fill="none" stroke="#263238" stroke-miterlimit="10" stroke-width="1"/>
      <path id="Trazado_10491" data-name="Trazado 10491" d="M257.05,207s1.116-4.905,4.751-5.939,4.953,1.354,6.663.131,3.361-5.939,4.751-7.031,3.468-3.076,4.751-2.945-1.461,3.646-1.461,3.646,2.744-.154,2.47.95a10.923,10.923,0,0,1-1.033,2.375,11.6,11.6,0,0,0,3.694-2.625c1.615-1.782,3.753-4.1,6.449-2.506,0,0,1.615.8.855,1.841s-3.029,8.148-5.939,9.882-7.233,1.865-9.715,2.185-12.1,6.877-12.1,6.877l-4.062-4.751Z" transform="translate(-99.682 -131.968)" fill="#fff"/>
      <path id="Trazado_10492" data-name="Trazado 10492" d="M261.361,213.406c2.922-2.981,5.938-4.288,9.5-6.057,2.375-1.188,5.285-.7,7.922-1.021,3.421-.4,5.024-2.589,6.627-5.463,1.259-2.292,2.269-5.392,4.1-7.019a5.807,5.807,0,0,0-2.957.083c-1.793.618-3.135,2.565-4.43,4.216a9.157,9.157,0,0,1-4.976,3.326.712.712,0,0,1-.523,0c-.463-.261-.226-1.1.071-1.615l2-3.373a1.377,1.377,0,0,0,.273-1.116c-.154-.475-.7-.5-1.188-.4a11.533,11.533,0,0,0-5.452,2.9c-1.354,1.188-2.66,2.91-4.359,2.945a9.192,9.192,0,0,1-2.375-.558,6.2,6.2,0,0,0-5.938,1.853c-1.615,1.675-2.815,3.314-2.72,5.939" transform="translate(-99.705 -131.501)" fill="none" stroke="#263238" stroke-linecap="round" stroke-linejoin="round" stroke-width="1"/>
      <path id="Trazado_10493" data-name="Trazado 10493" d="M285.226,193.74a1.292,1.292,0,0,0-1.057-1.188,4.038,4.038,0,0,0-3.266.321,9.145,9.145,0,0,0-1.888,1.829,31.5,31.5,0,0,1-4.834,4.442" transform="translate(-96.467 -131.754)" fill="none" stroke="#263238" stroke-linecap="round" stroke-linejoin="round" stroke-width="1"/>
      <path id="Trazado_10494" data-name="Trazado 10494" d="M268.08,199.979c1.9-2.6,2.969-5.939,5.535-7.827a4.252,4.252,0,0,1,2.233-.938.332.332,0,0,1,.261,0c.083.095,0,.249,0,.368-.748,1.461-1.508,2.9-2.292,4.347l.107-.214" transform="translate(-97.611 -131.972)" fill="none" stroke="#263238" stroke-linecap="round" stroke-linejoin="round" stroke-width="1"/>
      <path id="Trazado_10495" data-name="Trazado 10495" d="M284.039,216.444h0c-.784,1.39-25.809,46-30.132,48.565s-4.62,1.58-7.613.1-23.243-22.721-23.243-22.721l-1.96,8.991-4.6,20.725,13.457,34.669C216.7,316.164,194.236,317.9,194.236,317.9l-5-19.728L180,316.092a56.108,56.108,0,0,1-16.4-5.618,92.914,92.914,0,0,1-11.461-6.806l12.9-30.88a23.018,23.018,0,0,1-12.827,3.729,24.68,24.68,0,0,1-13.944-4.751,177.512,177.512,0,0,1,2.815-28.5c2.375-13.884,5.487-25.844,6.473-28.03C149.2,211.575,158.89,200.6,158.89,200.6c4.62-2.755,14.656-4.311,14.656-4.311l-1.746-9.5a24.645,24.645,0,0,1,6.96-1.924,26.887,26.887,0,0,1,6.7,0,6.969,6.969,0,0,1,1.188.166,39.289,39.289,0,0,1,15.345,6.164v6.853c8.92,1.639,22.626,9.727,25.916,12.411s20.025,28.054,20.025,28.054l29.823-30.251Z" transform="translate(-121.979 -133.198)" fill="#e33c3c"/>
      <path id="Trazado_10496" data-name="Trazado 10496" d="M271.257,212.318c-.784,1.39-25.809,45.988-30.12,48.553s-4.632,1.58-7.613.1-23.243-22.65-23.243-22.65L216.587,211s16.949,26.023,20.595,36.2Z" transform="translate(-108.461 -128.253)" opacity="0.2"/>
      <path id="Trazado_10497" data-name="Trazado 10497" d="M186.2,184.866v11.7s-15.321,9.11-17.9,14.431.558,45.347,14.419,59.86l-5.939-.558L163.1,310.442a92.9,92.9,0,0,1-11.461-6.806l12.9-30.88a23.018,23.018,0,0,1-12.78,3.729c.736-2.839,7.019-28.921-11.117-33.256,2.375-13.884,5.487-25.844,6.473-28.03,1.651-3.658,11.343-14.633,11.343-14.633,4.62-2.755,14.656-4.311,14.656-4.311l-1.746-9.5a24.646,24.646,0,0,1,6.96-1.924Z" transform="translate(-121.533 -133.165)" opacity="0.2"/>
      <path id="Trazado_10498" data-name="Trazado 10498" d="M195.657,147.362s5.558,2.375,6.449,6.865,1.568,9.2,4.062,11.069,3.777,2.554,2.886,4.121a13.534,13.534,0,0,1-1.306,2.031s2.292,15.44-.38,17.329-9.787-2.126-9.787-2.126a8.041,8.041,0,0,0-4.608,6.33c-.606,4.751-.083,3.242-.083,3.242s-10.844-5.285-21.889-3.456l.4-13.837S178.958,143.276,195.657,147.362Z" transform="translate(-115.834 -140.259)" fill="#fff"/>
      <path id="Trazado_10499" data-name="Trazado 10499" d="M196.42,161.85c.143,1.069-.131,2-.606,2.055s-.986-.748-1.128-1.829.131-1.983.606-2.055S196.254,160.781,196.42,161.85Z" transform="translate(-111.395 -137.822)" fill="#263238"/>
      <path id="Trazado_10500" data-name="Trazado 10500" d="M187.668,144.1s11.034,6.235,11.806,12.471,1.877,8.433,5.155,10.381,0,5.048,0,5.048,1.5,15.618-.38,17.329-11.877-1.247-16.628-8.314" transform="translate(-112.714 -140.81)" fill="none" stroke="#263238" stroke-linecap="round" stroke-linejoin="round" stroke-width="1"/>
      <path id="Trazado_10501" data-name="Trazado 10501" d="M186.2,186.81l.261,9.632s18.623,13.445,24.277,18.73L208.6,265.65l12.257-53.031s-10.963-12.518-27.864-14.894v-6.853a37.117,37.117,0,0,0-6.794-4.062Z" transform="translate(-112.981 -132.793)" fill="#fff" opacity="0.6"/>
      <path id="Trazado_10502" data-name="Trazado 10502" d="M193.428,180a10.286,10.286,0,0,0-3.4,4.846,21.245,21.245,0,0,0-.831,4.549" transform="translate(-112.418 -134.071)" fill="none" stroke="#263238" stroke-linecap="round" stroke-linejoin="round" stroke-width="1"/>
      <path id="Trazado_10503" data-name="Trazado 10503" d="M188.259,166.859s-4.359-4.6-6.6-3.492-3.444,5.38-1.591,10.772,6.544,6.045,9.193,3.67" transform="translate(-114.303 -137.226)" fill="none" stroke="#263238" stroke-linecap="round" stroke-linejoin="round" stroke-width="1"/>
      <path id="Trazado_10504" data-name="Trazado 10504" d="M171.444,178.93c-.071,2.6-.19,4.881-.4,7.281" transform="translate(-115.826 -134.272)" fill="none" stroke="#263238" stroke-linecap="round" stroke-linejoin="round" stroke-width="1"/>
      <path id="Trazado_10505" data-name="Trazado 10505" d="M192.179,170.963s10.689-7.886,9.8-19.668c0,0-5.855-9.965-19.894-9.965s-20.191,4.917-22.317,15.131-3.207,24.419,5.368,29.526,17.34,1.188,19.514-6.057c0,0-4.169-8.314-.083-11.663C187.642,165.749,192.179,170.963,192.179,170.963Z" transform="translate(-118.224 -141.33)" fill="#263238"/>
      <path id="Trazado_10506" data-name="Trazado 10506" d="M168.125,195.516l-2.055-8.741s17.412-6.354,30.678,4.406v6.449" transform="translate(-116.759 -133.15)" fill="none" stroke="#263238" stroke-linecap="round" stroke-linejoin="round" stroke-width="1"/>
      <path id="Trazado_10507" data-name="Trazado 10507" d="M215.193,269.14l13.469,35.869s-17.816,10.689-35.726,11.129l-4.988-19.728-9.252,17.911c-8.682-2.185-19.146-3.777-27.864-12.412l13.884-31.474L145.13,214.921,157.6,198.84s11.39-7.518,36.569-3.753,34.443,15.761,34.443,15.761Z" transform="translate(-120.69 -131.438)" fill="none" stroke="#263238" stroke-linecap="round" stroke-linejoin="round" stroke-width="1"/>
      <path id="Trazado_10508" data-name="Trazado 10508" d="M206.444,257.27s-5.582,2.708-14.7,0" transform="translate(-111.941 -119.568)" fill="none" stroke="#263238" stroke-linecap="round" stroke-linejoin="round" stroke-width="1"/>
      <path id="Trazado_10509" data-name="Trazado 10509" d="M191.21,261.563A19.894,19.894,0,0,0,204.94,258" transform="translate(-112.04 -119.431)" fill="none" stroke="#263238" stroke-linecap="round" stroke-linejoin="round" stroke-width="1"/>
      <g id="Grupo_2" data-name="Grupo 2" transform="translate(44.94 6.751)" opacity="0.3">
        <path id="Trazado_10510" data-name="Trazado 10510" d="M162.82,151.831c1.948-2.15,4.858-3.124,7.684-3.813a26.58,26.58,0,0,1,11.093-.725,12.816,12.816,0,0,1,9,6.022" transform="translate(-162.309 -147.014)" fill="none" stroke="#fff" stroke-linecap="round" stroke-linejoin="round" stroke-width="1"/>
        <path id="Trazado_10511" data-name="Trazado 10511" d="M162.39,154.28a21.022,21.022,0,0,0,16.747,15.88" transform="translate(-162.39 -145.65)" fill="none" stroke="#fff" stroke-linecap="round" stroke-linejoin="round" stroke-width="1"/>
      </g>
      <path id="Trazado_10512" data-name="Trazado 10512" d="M215.46,208.19l17.982,25.9s3.361,8.967,1.5,17.554" transform="translate(-107.489 -128.78)" fill="none" stroke="#263238" stroke-linecap="round" stroke-linejoin="round" stroke-width="1"/>
      <path id="Trazado_10513" data-name="Trazado 10513" d="M234.531,234.781l29.811-30.251,6.33,8.219S255.054,246,240.517,261.338a5.357,5.357,0,0,1-7.613.1L209.66,238.712" transform="translate(-108.577 -129.467)" fill="none" stroke="#263238" stroke-linecap="round" stroke-linejoin="round" stroke-width="1"/>
      <path id="Trazado_10514" data-name="Trazado 10514" d="M146.424,211.62s-8.837,36.142-8.148,55.038c0,0,12.115,11.081,27.733.475" transform="translate(-121.983 -128.136)" fill="none" stroke="#263238" stroke-linecap="round" stroke-linejoin="round" stroke-width="1"/>
      <path id="Trazado_10515" data-name="Trazado 10515" d="M157.231,244a31.071,31.071,0,0,1-4.311,11.378" transform="translate(-119.228 -122.058)" fill="none" stroke="#263238" stroke-linecap="round" stroke-linejoin="round" stroke-width="1"/>
      <path id="Trazado_10516" data-name="Trazado 10516" d="M163.72,159.771a28.8,28.8,0,0,0-1.782,10.107c-.63,15.844,1.7,31.676,1.33,47.508-.131,5.452-.618,11.046-2.945,15.975s-6.794,9.157-12.21,9.822a17.542,17.542,0,0,1-7.613-1,22.863,22.863,0,0,1-9.787-6.235A24.787,24.787,0,0,1,125.155,224a34.182,34.182,0,0,1,1.033-16.842c3.385-10.535,11.592-18.718,17.067-28.339a59.384,59.384,0,0,0,6.01-15.155c1.033-4.264,1.829-9.038,5.262-11.782a11.568,11.568,0,0,1,8.112-2.1c1.96.154,6.889.344,6.366,3.242C168.625,155.1,164.706,157.455,163.72,159.771Z" transform="translate(-124.552 -139.758)" fill="#263238"/>
      <g id="Grupo_3" data-name="Grupo 3" transform="translate(7.459 14.454)" opacity="0.3">
        <path id="Trazado_10517" data-name="Trazado 10517" d="M163.568,153.5a13.92,13.92,0,0,0-8.5,5.392,23.09,23.09,0,0,0-3.4,7.97c-4.965,19-1.888,39.194-5.25,58.459-1.021,5.844-2.851,11.96-7.388,15.773" transform="translate(-129.294 -153.5)" fill="none" stroke="#fff" stroke-linecap="round" stroke-linejoin="round" stroke-width="1"/>
        <path id="Trazado_10518" data-name="Trazado 10518" d="M139.05,191.28c.8-1.188,1.627-2.375,2.459-3.563.511-.713,1.045-1.449,1.544-2.2" transform="translate(-129.29 -147.49)" fill="none" stroke="#fff" stroke-linecap="round" stroke-linejoin="round" stroke-width="1"/>
        <path id="Trazado_10519" data-name="Trazado 10519" d="M133.407,228.18c-3.278-6.865-3.195-15-1.045-22.293a50.752,50.752,0,0,1,4.2-9.977" transform="translate(-130.833 -145.539)" fill="none" stroke="#fff" stroke-linecap="round" stroke-linejoin="round" stroke-width="1"/>
      </g>
    </g>
    <g id="freepik--character-2--inject-53" transform="translate(334.049 153.262)">
      <path id="Trazado_10520" data-name="Trazado 10520" d="M340.523,228.7a16.7,16.7,0,0,0-.689-10.048,103.577,103.577,0,0,0-5.178-9.632s.44-7.483-1.473-10.048-7.863-11.877-9.264-11.936-1.188,6.354,1.188,10.618l-.392,2.9s-9.015-4.644-11.723-5.725-9.5-4.109-10.962-2.755,9.1,5.024,10.962,8.005c0,0-16.77-1.758-16.462.475s6,2.577,6,2.577-1.758.321-1.271,1.71,12.78,4.181,12.78,4.181a29.526,29.526,0,0,0,13.48,11.129C336.924,224.1,340.523,228.7,340.523,228.7Z" transform="translate(-289.167 -127.394)" fill="#fff"/>
      <path id="Trazado_10521" data-name="Trazado 10521" d="M337.555,227.7c-.178-9.371-7.126-18.671-7.126-18.671s.582-8.314-2.589-11.711a23.351,23.351,0,0,1-1.556-1.841c-.487-.618-.974-1.283-1.461-1.96-2.245-3.1-4.311-6.354-5.131-6.473-1.057-.154-.736,5.7.356,8.409a4.079,4.079,0,0,0,.451.855,2.375,2.375,0,0,1,.416,1.354c.083,2.055-1.473,4.917.131,7.554" transform="translate(-284.94 -127.394)" fill="none" stroke="#263238" stroke-linecap="round" stroke-linejoin="round" stroke-width="1"/>
      <path id="Trazado_10522" data-name="Trazado 10522" d="M324,199.761s-20-11.153-23.457-7.886c0,0,10.689,5.119,11.735,7.411" transform="translate(-288.413 -126.598)" fill="none" stroke="#263238" stroke-linecap="round" stroke-linejoin="round" stroke-width="1"/>
      <path id="Trazado_10523" data-name="Trazado 10523" d="M316.049,202.868s-12.174-3.812-15.44-1.817,12.78,5.452,12.78,5.452,5.76,8.623,9.846,8.136" transform="translate(-288.483 -124.872)" fill="none" stroke="#263238" stroke-linecap="round" stroke-linejoin="round" stroke-width="1"/>
      <path id="Trazado_10524" data-name="Trazado 10524" d="M301.291,201.725s-4.905-.772-4.751-3.017,15.44-2.375,21.438,1.508" transform="translate(-289.165 -125.499)" fill="none" stroke="#263238" stroke-linecap="round" stroke-linejoin="round" stroke-width="1"/>
      <path id="Trazado_10525" data-name="Trazado 10525" d="M322.545,194.975a2.375,2.375,0,0,1,.416,1.354l-13.172,5.38a1.188,1.188,0,0,1-.9-2.2l13.207-5.392a4.073,4.073,0,0,0,.451.855Z" transform="translate(-286.985 -126.065)" fill="#263238"/>
      <path id="Trazado_10526" data-name="Trazado 10526" d="M332.527,192.037l-7.126,2.922c-.487-.618-.974-1.283-1.461-1.96l7.732-3.159a1.188,1.188,0,0,1,.891,2.2Z" transform="translate(-284.021 -126.88)" fill="#263238"/>
      <path id="Trazado_10527" data-name="Trazado 10527" d="M337.743,211.13,301.7,215.418l-11.366,9.87,27.246,52.592,39.467-2.672,2.791-13.017Z" transform="translate(-290.33 -122.872)" fill="#fff"/>
      <path id="Trazado_10528" data-name="Trazado 10528" d="M330.963,211.13l-4.513,9.015,23.813,55.062,2.791-13.017Z" transform="translate(-283.55 -122.872)" fill="#263238"/>
      <path id="Trazado_10529" data-name="Trazado 10529" d="M330.963,211.13l-4.513,9.015,23.813,55.062,2.791-13.017Z" transform="translate(-283.55 -122.872)" fill="#fff" opacity="0.9"/>
      <path id="Trazado_10530" data-name="Trazado 10530" d="M290.33,223.863l42.9-5.143,23.813,55.062-39.467,2.672Z" transform="translate(-290.33 -121.447)" fill="#263238"/>
      <path id="Trazado_10531" data-name="Trazado 10531" d="M290.33,223.863l42.9-5.143,23.813,55.062-39.467,2.672Z" transform="translate(-290.33 -121.447)" fill="#fff" opacity="0.6"/>
      <path id="Trazado_10532" data-name="Trazado 10532" d="M333.23,218.72l-42.9,5.143,27.246,52.591,39.467-2.672Z" transform="translate(-290.33 -121.447)" fill="none" stroke="#263238" stroke-linecap="round" stroke-linejoin="round" stroke-width="1"/>
      <line id="Línea_29" data-name="Línea 29" y1="9.015" x2="4.513" transform="translate(42.9 88.258)" fill="none" stroke="#263238" stroke-linecap="round" stroke-linejoin="round" stroke-width="1"/>
      <path id="Trazado_10533" data-name="Trazado 10533" d="M357.043,275.207l2.791-13.017L337.743,211.13,301.7,215.418l-11.366,9.87" transform="translate(-290.33 -122.872)" fill="none" stroke="#263238" stroke-linecap="round" stroke-linejoin="round" stroke-width="1"/>
      <path id="Trazado_10534" data-name="Trazado 10534" d="M317.361,250.9s-1.556-7.708-5.82-9.5-17.329-.463-17.815,2.185,4.478,5.558,4.478,5.558-.724,8.753,4.038,11.984,13.065,1.746,13.065,1.746l4.323,1.1L322,251.472Z" transform="translate(-289.699 -117.344)" fill="#fff"/>
      <path id="Trazado_10535" data-name="Trazado 10535" d="M319,250.554l-1.687.309s-1.758-9.1-6.544-9.894-17.566.321-17.079,3.5,4.466,4.632,4.466,4.632-.166,10.535,4.953,12.447,12.126,1.283,12.126,1.283c-.8-.356.653.178,2.316.594" transform="translate(-289.701 -117.317)" fill="none" stroke="#263238" stroke-linecap="round" stroke-linejoin="round" stroke-width="1"/>
      <path id="Trazado_10536" data-name="Trazado 10536" d="M409.646,415.44l.63,14.739S399.848,436.557,395,434.93s-20.5-9.905-20.5-9.905-.713-8.468,8.837-8.314S406.047,422,406.047,422Z" transform="translate(-274.533 -84.522)" fill="#e33c3c"/>
      <path id="Trazado_10537" data-name="Trazado 10537" d="M409.646,415.44l.63,14.739S399.848,436.557,395,434.93s-20.5-9.905-20.5-9.905-.713-8.468,8.837-8.314S406.047,422,406.047,422Z" transform="translate(-274.533 -84.522)" opacity="0.2"/>
      <path id="Trazado_10538" data-name="Trazado 10538" d="M378.21,418.386a72.177,72.177,0,0,0,9.834,4.549,13.837,13.837,0,0,0,5.428.891l1.485-1.033,2.067-1.033.713-2.28L391.69,418.2S382.628,416.569,378.21,418.386Z" transform="translate(-273.835 -84.13)" fill="#fff"/>
      <path id="Trazado_10539" data-name="Trazado 10539" d="M375.391,420.61l-.891,3.444s12,8.5,18.837,9.5,16.937-4.335,16.937-4.335l-.1-2.221s-6.152,3.5-11.877,3.753S375.391,420.61,375.391,420.61Z" transform="translate(-274.531 -83.551)" fill="#fff"/>
      <path id="Trazado_10540" data-name="Trazado 10540" d="M398.628,419.508s-14.526-1.96-19.407-.689-4.751,6.342-4.751,6.342S391.1,436.445,397.9,435.186a38.327,38.327,0,0,0,12.34-4.87V414.71" transform="translate(-274.537 -84.659)" fill="none" stroke="#263238" stroke-linecap="round" stroke-linejoin="round" stroke-width="1"/>
      <path id="Trazado_10541" data-name="Trazado 10541" d="M375.25,420.61s17.174,10.345,22.946,10.131,11.936-4.6,11.936-4.6" transform="translate(-274.39 -83.551)" fill="none" stroke="#263238" stroke-linecap="round" stroke-linejoin="round" stroke-width="1"/>
      <path id="Trazado_10542" data-name="Trazado 10542" d="M377.89,418.68c5.238.843,8.1,4.953,13.385,5.19a7.791,7.791,0,0,0,7.043-3.967" transform="translate(-273.895 -83.914)" fill="none" stroke="#263238" stroke-linecap="round" stroke-linejoin="round" stroke-width="1"/>
      <path id="Trazado_10543" data-name="Trazado 10543" d="M359.392,422.169l-.451,20.963s-11.568,2.874-17.982.463-19.609-19.4-19.609-19.4,3.943-7.685,12.352-4.466,19.859,8.777,19.859,8.777Z" transform="translate(-284.507 -83.864)" fill="#e33c3c"/>
      <path id="Trazado_10544" data-name="Trazado 10544" d="M359.392,422.169l-.451,20.963s-11.568,2.874-17.982.463-19.609-19.4-19.609-19.4,3.943-7.685,12.352-4.466,19.859,8.777,19.859,8.777Z" transform="translate(-284.507 -83.864)" opacity="0.2"/>
      <path id="Trazado_10545" data-name="Trazado 10545" d="M321.36,423.8l1.4-2.708s8.005,8.492,9.834,10.262,7.126,6.912,11.687,8.5,14.062-.083,14.062-.083l.606,2.957s-14.051,2.233-17.329.712S324.994,429.8,321.36,423.8Z" transform="translate(-284.505 -83.461)" fill="#fff"/>
      <path id="Trazado_10546" data-name="Trazado 10546" d="M327.21,418.77s5.345,4.383,7.126,5.938,4.834,3.967,7.791,3.9a13.848,13.848,0,0,0,6.117-2.185l-7.269-3.254S330.844,417.749,327.21,418.77Z" transform="translate(-283.407 -83.921)" fill="#fff"/>
      <path id="Trazado_10547" data-name="Trazado 10547" d="M343.629,424.236s-9.086-5.262-14.918-5.475-7.352,5.475-7.352,5.475,14.252,19.359,22.269,20.191a44.113,44.113,0,0,0,15.321-1.295l.439-17.281" transform="translate(-284.505 -83.9)" fill="none" stroke="#263238" stroke-linecap="round" stroke-linejoin="round" stroke-width="1"/>
      <path id="Trazado_10548" data-name="Trazado 10548" d="M322.66,420.94s14.573,17.139,20.571,18.754,15.559,0,15.559,0" transform="translate(-284.262 -83.49)" fill="none" stroke="#263238" stroke-linecap="round" stroke-linejoin="round" stroke-width="1"/>
      <path id="Trazado_10549" data-name="Trazado 10549" d="M326,418.91a12.721,12.721,0,0,1,6.485,3.729,30.116,30.116,0,0,0,5.8,4.858c2.221,1.188,5.131,1.579,7.209.142" transform="translate(-283.635 -83.871)" fill="none" stroke="#263238" stroke-linecap="round" stroke-linejoin="round" stroke-width="1"/>
      <path id="Trazado_10550" data-name="Trazado 10550" d="M353.508,150.15s-8.314,7.364-9.086,12.376,1.9,10.879,1.675,13.065-4.489,6.568-3.753,7.9a23.331,23.331,0,0,0,3.326,3.741s-.511,10.761,5.939,14.621l2.993.7,13.48-7.34,2.114,2.375,19.383-3.563a24.56,24.56,0,0,1-2.447-9.5c-.273-5.5,2.447-16.093,2.447-16.093L384.127,157.1Z" transform="translate(-280.583 -134.318)" fill="#fff"/>
      <path id="Trazado_10551" data-name="Trazado 10551" d="M407.509,282.9l6.984,27.828s-5.428,2.8-12.815,6.33c-13.243,6.33-32.793,15.013-38.767,14.252-9.3-1.283-31.094-23.932-31.094-23.932L345.1,278.489s-27.8.855-33.161-.938c0,0-1.473-10.689,2.316-19.835l33.707,1.675.332-2.862s6.972-24.669,11.2-34.242,8.979-18.172,8.979-18.172l8.5-6.259-2.375-6.414s9.917-7.269,20.571-7.031h0a19.194,19.194,0,0,1,10.084,2.969l-1.983,6.746s18.255,21.379,21.046,28.6S413.923,267.883,407.509,282.9Z" transform="translate(-286.328 -127.888)" fill="#e33c3c"/>
      <path id="Trazado_10552" data-name="Trazado 10552" d="M337.57,275.28l24.455,4.228S377.691,265.98,383.19,232c0,0-11.687,28.932-21.034,36.474l-21.925.938Z" transform="translate(-281.463 -118.954)" opacity="0.2"/>
      <path id="Trazado_10553" data-name="Trazado 10553" d="M397.188,282.892l6.984,27.828s-5.558,2.15-12.946,5.677a212.262,212.262,0,0,0-6.1-23.861,8.792,8.792,0,0,0-1.366-2.946,10.916,10.916,0,0,0-2.732-2.969c-3.064-1.722-7.269-5.1-9.086-8.112,5.428,1.1,11.877,3.694,17.4,3.409a2.957,2.957,0,0,0,1.936-.594,3.017,3.017,0,0,0,.7-1.5q3.468-13.362,6.924-26.7a33.154,33.154,0,0,0,1.5-9.288c-.119-3.967-1.639-7.744-3.147-11.426q-5.725-13.967-11.556-27.887a7.838,7.838,0,0,0-2.375-3.563,7.6,7.6,0,0,0-3.349-1.093c-4.062-.618-9.217-1.888-13.326-2.043,4.656-3.872,11.473-5.5,17.471-6.283a21.7,21.7,0,0,0,.665-7.126h0a19.194,19.194,0,0,1,10.084,2.969l-1.984,6.746s18.255,21.379,21.046,28.6S403.6,267.88,397.188,282.892Z" transform="translate(-276.006 -127.885)" opacity="0.2"/>
      <path id="Trazado_10554" data-name="Trazado 10554" d="M351.4,167.853c.154,1.093-.131,2.031-.618,2.09s-1.01-.76-1.188-1.853.143-2.031.63-2.09S351.273,166.761,351.4,167.853Z" transform="translate(-279.214 -131.343)" fill="#263238"/>
      <path id="Trazado_10555" data-name="Trazado 10555" d="M369.823,179.395l6.663-1.829s1.675-7.126.926-11.366-6.437-4.6-8.148-4.466-1.4,6.485-1.4,6.485" transform="translate(-275.781 -132.148)" fill="none" stroke="#263238" stroke-linecap="round" stroke-linejoin="round" stroke-width="1"/>
      <path id="Trazado_10556" data-name="Trazado 10556" d="M350.752,151.8l-6.342,10.416a3.741,3.741,0,0,0-.475,2.708l2.15,10.4a3.765,3.765,0,0,1-.689,3.017c-1.188,1.544-2.945,4-3.064,4.882s1.069,1.722,2.078,2.375a3.694,3.694,0,0,1,1.639,2.518c.57,3.385.819,6.817,3.207,10.559,3.124,4.905,7.043,3.373,7.043,3.373l11.877-7.126c.938-.606,3.717-10.5,3.717-10.5" transform="translate(-280.571 -134.008)" fill="none" stroke="#263238" stroke-linecap="round" stroke-linejoin="round" stroke-width="1"/>
      <path id="Trazado_10557" data-name="Trazado 10557" d="M347.27,162.948s3.789-4.573,7.423.3" transform="translate(-279.642 -132.281)" fill="none" stroke="#263238" stroke-linecap="round" stroke-linejoin="round" stroke-width="1"/>
      <path id="Trazado_10558" data-name="Trazado 10558" d="M349,183.682s9.7-6.319,11.153-9.5c0,0,.8,9.276-3.029,10.927S349,183.682,349,183.682Z" transform="translate(-279.317 -129.807)" fill="#263238"/>
      <path id="Trazado_10559" data-name="Trazado 10559" d="M381.32,186.572s-2.53-8.207-1.057-13.682" transform="translate(-273.536 -130.05)" fill="none" stroke="#263238" stroke-linecap="round" stroke-linejoin="round" stroke-width="1"/>
      <path id="Trazado_10560" data-name="Trazado 10560" d="M332.113,291.37s-.4,36.047,2.589,81.37,7.269,78.246,7.269,78.246,9.834,8.124,17.531,0L372.756,333.4l29.93,109.459s5.939,5.238,11.046,2.672a17.186,17.186,0,0,0,7.328-7.328s-13.552-118.331-13.552-146.088c0,0-42.888,19.989-48.446,19.134S332.113,291.37,332.113,291.37Z" transform="translate(-282.491 -107.81)" fill="#263238"/>
      <path id="Trazado_10561" data-name="Trazado 10561" d="M366.33,328.819v-7.756l10.749-5.273" transform="translate(-276.064 -103.227)" fill="none" stroke="#fff" stroke-linecap="round" stroke-linejoin="round" stroke-width="1"/>
      <path id="Trazado_10562" data-name="Trazado 10562" d="M375.38,265.08s6.212,4.454,18.386,5.345" transform="translate(-274.366 -112.745)" fill="none" stroke="#263238" stroke-linecap="round" stroke-linejoin="round" stroke-width="1"/>
      <path id="Trazado_10563" data-name="Trazado 10563" d="M375.38,269.58a29.419,29.419,0,0,0,15.713,0" transform="translate(-274.366 -111.9)" fill="none" stroke="#263238" stroke-linecap="round" stroke-linejoin="round" stroke-width="1"/>
      <path id="Trazado_10564" data-name="Trazado 10564" d="M373.235,170.129c-.82-.641.879,6.485-3.777,6.817a3.266,3.266,0,0,1-2.791-.641,7.125,7.125,0,0,1-1.342-2.767c-.808-2.613-1.627-5.226-2.435-7.839-.534-1.687-1.188-3.563-2.6-4.525a12.562,12.562,0,0,0-3.421-1.259c-2.672-.843-5.2-2.993-5.392-5.784,0,0-10.475.926-12.079-3.124-2.447-6.176,1.473-8.884,6.841-8.837s10.309,2.589,16.093.63,18.231-6.829,20.844-.855c0,0,4.513-2,7.209,5.5s8.9,22.566,3.254,27.21-4.323,7.494-7,7.126-3.468-4.406-3.468-4.406,1.425-9.5-4.608-11S373.235,170.129,373.235,170.129Z" transform="translate(-281.26 -136.398)" fill="#263238"/>
      <path id="Trazado_10565" data-name="Trazado 10565" d="M373.26,136.82a5.273,5.273,0,0,1,2.708,6.378" transform="translate(-274.764 -136.82)" fill="none" stroke="#263238" stroke-linecap="round" stroke-linejoin="round" stroke-width="1"/>
      <path id="Trazado_10566" data-name="Trazado 10566" d="M366.958,197.018l-1.948-6.259,6.366-3.409,1.615,6.722Z" transform="translate(-276.312 -127.335)" fill="#fff" opacity="0.6"/>
      <path id="Trazado_10567" data-name="Trazado 10567" d="M376.14,141.663a6.77,6.77,0,0,1,8.765,1.188" transform="translate(-274.223 -136.117)" fill="none" stroke="#263238" stroke-linecap="round" stroke-linejoin="round" stroke-width="1"/>
      <path id="Trazado_10568" data-name="Trazado 10568" d="M366.833,197.281l-2.233-5.938s9.5-5.939,19.122-6.912c4.169-.439,7.542,1.544,11.556,2.862l-1.984,6.746" transform="translate(-276.389 -127.895)" fill="none" stroke="#263238" stroke-linecap="round" stroke-linejoin="round" stroke-width="1"/>
      <path id="Trazado_10569" data-name="Trazado 10569" d="M341.909,277.418,328.63,306.3c6.307,7.969,28.125,22.78,31.094,23.932s51.582-20.523,51.582-20.523l-6.972-27.828s20.583-49.622,17.376-58.7-21.046-30.761-24.692-32.757-12.875,1.33-12.875,1.33-13.005,5.119-17.6,9.715-15.44,30.714-17.626,42.033" transform="translate(-283.141 -126.877)" fill="none" stroke="#263238" stroke-linecap="round" stroke-linejoin="round" stroke-width="1"/>
      <path id="Trazado_10570" data-name="Trazado 10570" d="M348.023,254.056l-33.707-1.675c-4.953,11.877-2.3,19.835-2.3,19.835,9.917,2.375,55.074,0,55.074,0,10.428-10.594,22.851-40.7,22.851-40.7a32.389,32.389,0,0,0-3.9-19" transform="translate(-286.393 -122.613)" fill="none" stroke="#263238" stroke-linecap="round" stroke-linejoin="round" stroke-width="1"/>
      <path id="Trazado_10571" data-name="Trazado 10571" d="M371.2,204.9l-2.375,7.4s-27.08,39.052-26.4,46.677c0,0-.475-3.729,4.359-19.538a116.3,116.3,0,0,1,14.431-29.324Z" transform="translate(-280.554 -124.041)" fill="#fff" opacity="0.6"/>
      <path id="Trazado_10572" data-name="Trazado 10572" d="M344.821,265.148a17.447,17.447,0,0,1-2.482-11.224c.831-6.461,10.179-30.465,18.944-43.7l11.366-5.939" transform="translate(-280.59 -124.156)" fill="none" stroke="#263238" stroke-linecap="round" stroke-linejoin="round" stroke-width="1"/>
      <line id="Línea_30" data-name="Línea 30" x1="1.508" y1="2.031" transform="translate(87.546 60.894)" fill="none" stroke="#263238" stroke-linecap="round" stroke-linejoin="round" stroke-width="1"/>
    </g>
  </g>
</svg>
