<svg xmlns="http://www.w3.org/2000/svg" viewBox="0 0 196.52 200.05"><defs><style>.cls-1{fill:#d7383a;}</style></defs><title>Asset 5</title><g id="Layer_2" data-name="Layer 2"><g id="Layer_1-2" data-name="Layer 1"><path class="cls-1" d="M0,143.41c0-4.29,0-8.42,0-12.54,0-6,0-12,.16-18A2.76,2.76,0,0,1,1.38,111c5.35-3.26,10.76-6.43,16.15-9.63.64-.39,1.25-.83,2.32-1.54L0,88.32C0,83.2,0,78,0,72.87s0-10,.18-15a3.58,3.58,0,0,1,1.68-2.37C7,52.34,12.28,49.32,17.5,46.27L42,32q15.33-8.89,30.68-17.79Q83.2,8.13,93.67,2A20.88,20.88,0,0,1,96.79.19a3.24,3.24,0,0,1,2.43.1c5.75,3.23,11.44,6.56,17.15,9.87l18.27,10.58,22.56,13,22.46,12.89c5.05,2.91,10.08,5.84,15.13,8.75.52.3,1.07.55,1.7.88,0,4.76,0,9.55,0,14.33,0,5.45,0,10.9-.19,16.34a3.21,3.21,0,0,1-1.45,2.14c-5.47,3.29-11,6.46-16.51,9.69a16.44,16.44,0,0,0-1.6,1.3l19.77,11.55c0,2.95,0,6,0,9,0,7.15,0,14.31-.18,21.46a3,3,0,0,1-1.33,2c-7.42,4.42-14.89,8.76-22.35,13.11q-14.25,8.31-28.5,16.61c-8.66,5-17.34,10-26,15q-9.14,5.3-18.22,10.67a2.24,2.24,0,0,1-2.58.14c-8.65-5-17.33-10-26-15q-14.29-8.24-28.57-16.49L19.07,154.49ZM167.52,72.65a18.73,18.73,0,0,0-2-1.6q-12.93-7.47-25.88-14.91-10.94-6.31-21.85-12.65c-6-3.46-12-6.86-18-10.38a3.29,3.29,0,0,0-3.79,0q-15.53,9.09-31.1,18.07Q47.53,61.23,30.1,71.3a9.69,9.69,0,0,0-1.33,1.15l3.52,2C37,77.21,41.81,80,46.55,82.75a2.68,2.68,0,0,0,3,0L59.34,77,80.85,64.5c5.22-3,10.48-6,15.68-9.11a2.46,2.46,0,0,1,2.88,0c5.15,3.06,10.34,6.05,15.53,9.05l25.44,14.68,8,4.59ZM28.75,127.35a13,13,0,0,0,1.31,1q12.59,7.23,25.18,14.45c7.19,4.15,14.36,8.34,21.55,12.5,6.86,4,13.71,7.94,20.61,11.83a2.7,2.7,0,0,0,2.24.06c10.54-6.05,21-12.18,31.53-18.29l35.22-20.49a13.62,13.62,0,0,0,1.26-1l-19.09-11c-.74.34-1.41.6-2,1-2.18,1.27-4.34,2.59-6.53,3.87l-25.67,14.9c-4.81,2.79-9.58,5.63-14.42,8.35a2.91,2.91,0,0,1-2.39.23c-7.9-4.47-15.74-9-23.59-13.58-8.28-4.79-16.54-9.62-24.85-14.36a2.5,2.5,0,0,0-2.09,0c-4.66,2.58-9.27,5.26-13.89,7.93C31.75,125.48,30.42,126.33,28.75,127.35Zm91.46-27.22c-.69-.48-.94-.68-1.22-.84C113.32,96,107.53,93,102,89.45c-2.86-1.84-5-2.09-8-.18-5.29,3.44-10.89,6.41-16.34,9.59A7.15,7.15,0,0,0,76.61,100l22,12.69Z"/></g></g></svg>