<svg xmlns="http://www.w3.org/2000/svg" width="25.467" height="25.467" viewBox="0 0 25.467 25.467">
  <g id="Grupo_4" data-name="Grupo 4" transform="translate(-830.133 -712.533)">
    <path id="Trazado_9619" data-name="Trazado 9619" d="M5.969,107.964a6.723,6.723,0,0,1,.952-3.456v-4.293H2.627a12.74,12.74,0,0,0,0,15.5H6.92v-4.293A6.723,6.723,0,0,1,5.969,107.964Z" transform="translate(830.133 617.303)" fill="#fbbd00"/>
    <path id="Trazado_9620" data-name="Trazado 9620" d="M198.984,373.908,196,376.892l2.984,2.984a12.636,12.636,0,0,0,7.749-2.627v-4.288h-4.288A6.764,6.764,0,0,1,198.984,373.908Z" transform="translate(643.882 358.123)" fill="#0f9d58"/>
    <path id="Trazado_9621" data-name="Trazado 9621" d="M57.116,325.477l-4.293,4.293a12.936,12.936,0,0,0,1.1,1.255,12.65,12.65,0,0,0,9,3.729v-5.969A6.767,6.767,0,0,1,57.116,325.477Z" transform="translate(779.938 403.246)" fill="#31aa52"/>
    <path id="Trazado_9622" data-name="Trazado 9622" d="M268.733,200.243a12.845,12.845,0,0,0-.208-2.307l-.112-.612H256v5.969h6.041a6.734,6.734,0,0,1-2.581,2.767l4.288,4.288a12.936,12.936,0,0,0,1.255-1.1A12.65,12.65,0,0,0,268.733,200.243Z" transform="translate(586.867 525.024)" fill="#3c79e6"/>
    <path id="Trazado_9623" data-name="Trazado 9623" d="M203.768,7.95l.528.528,4.221-4.22-.528-.528a12.65,12.65,0,0,0-9-3.73L196,2.984l2.984,2.984A6.72,6.72,0,0,1,203.768,7.95Z" transform="translate(643.882 712.533)" fill="#cf2d48"/>
    <path id="Trazado_9624" data-name="Trazado 9624" d="M62.928,5.969V0a12.65,12.65,0,0,0-9,3.729,12.925,12.925,0,0,0-1.1,1.255l4.293,4.293a6.767,6.767,0,0,1,5.813-3.309Z" transform="translate(779.939 712.533)" fill="#eb4132"/>
  </g>
</svg>
